<svg width="176" height="32" viewBox="0 0 176 32" fill="none" xmlns="http://www.w3.org/2000/svg">
<g clip-path="url(#clip0_1657_20963)">
<path d="M37.7746 12.4041C37.9232 11.774 37.2188 10.5936 35.8211 9.55353C36.4814 9.18483 37.3041 8.63453 37.5187 8.07323C37.626 7.78983 37.6013 7.4734 37.4444 7.179C36.9629 6.27101 34.6104 4.85674 31.6443 4.15786C31.0087 4.00653 30.3594 3.89372 29.71 3.81668C30.0622 2.95547 30.1337 2.39691 29.9549 2.01721C29.8256 1.73931 29.5752 1.54395 29.2505 1.46691C28.4031 1.26605 25.481 1.87963 23.4861 3.04351C23.3321 2.45194 23.1009 2.14928 22.7295 2.01446C22.6992 2.00345 22.6552 1.98969 22.6222 1.98144C22.3058 1.90715 21.9838 1.99244 21.6647 2.24008C21.5574 2.32262 21.439 2.43819 21.318 2.56751C21.2354 2.4602 21.1474 2.35564 21.0593 2.25659L21.0428 2.23182L21.0181 2.20981L20.9933 2.1823L20.9713 2.16854L20.6411 1.87963C20.5723 1.8191 20.4788 1.73656 20.355 1.66227L20.0358 1.45591C19.912 1.36786 19.7854 1.31283 19.6836 1.2688C19.6506 1.25505 19.6176 1.24129 19.5845 1.22478L19.5543 1.21102C19.5213 1.19727 19.4882 1.18351 19.4552 1.167C19.3534 1.12022 19.2296 1.06244 19.0783 1.02667L18.5885 0.894602L18.1042 0.836821C17.9392 0.809306 17.7878 0.81756 17.6668 0.823063L17.5402 0.828566C17.5017 0.831318 17.4659 0.831318 17.4274 0.834069C17.3228 0.834069 17.1935 0.839572 17.0532 0.87259L16.7588 0.930371C16.7533 0.858833 16.7395 0.787294 16.7175 0.718507C16.6212 0.421346 16.3818 0.192973 16.0902 0.124186C16.0681 0.118683 16.0489 0.115932 16.0269 0.110429C14.6236 -0.170223 13.2561 0.0884167 12.1748 0.836821C11.1182 1.56596 10.4193 2.69958 10.202 4.02579C10.1084 4.59535 10.1167 5.1484 10.2157 5.66293C9.99561 5.76198 9.792 5.86103 9.61315 5.95459L9.01883 6.14169L8.97756 6.15819C8.45203 6.3563 7.87146 6.60669 7.2001 6.92036C5.07045 7.91639 3.73323 7.91364 2.98758 7.73755C2.59687 7.644 2.37124 7.50642 2.26944 7.43213C2.17039 7.35784 2.06033 7.30832 1.94201 7.2808C1.75216 7.23678 1.5513 7.25604 1.37521 7.33308C1.0808 7.4624 0.879938 7.7403 0.846921 8.05947C0.717601 9.32516 1.19636 10.3955 2.17864 11.0889C1.35044 11.9886 0.340647 13.5845 0.0682501 16.1653C-0.195892 18.6775 0.307629 20.6475 1.56231 22.026C1.60633 22.0728 1.65035 22.1196 1.69988 22.1691C1.47151 23.1046 1.60358 24.0704 2.08234 24.9123C2.44003 25.5424 2.97657 26.0597 3.60666 26.3926C4.19273 27.8564 5.95918 30.2695 11.2943 31.5296L11.3301 31.5379C16.5359 32.7596 19.8377 31.249 20.9823 30.5666C21.9783 30.7647 23.5054 30.6354 24.7271 29.6421C24.8811 29.5156 25.0352 29.3725 25.1838 29.2129C27.0933 28.6598 28.736 27.0145 29.8256 24.5574C30.9839 23.1266 32.0295 20.2816 31.8011 17.1256C32.877 17.2412 34.2334 17.2742 34.7397 16.8037C34.8938 16.6606 35.0727 16.402 35.0616 15.9755C35.0506 15.6123 34.8828 15.1005 34.6297 14.6135C36.0054 14.0742 37.626 13.0342 37.7746 12.3986V12.4041Z" fill="white"/>
<path d="M5.72256 21.5277C5.12548 20.372 3.2132 20.306 2.62163 22.2018C2.02731 24.0976 3.4911 25.8723 5.16676 25.9135L5.72256 21.5277Z" fill="#CFA48B" stroke="#251F22" stroke-width="0.688945" stroke-linecap="round" stroke-linejoin="round"/>
<path d="M4.77054 22.2879C4.77054 22.2879 4.02489 24.39 4.26977 25.5264C4.51465 26.6628 5.89315 29.3482 11.5337 30.6744C17.5127 32.0777 20.8337 29.6041 20.8337 29.6041C23.2743 29.5271 29.7128 24.1644 28.1857 15.4862C26.9448 8.43416 17.9254 5.76797 11.7125 7.43262C5.49968 9.09727 2.61062 17.1206 4.77054 22.2906V22.2879Z" fill="#FFECE1"/>
<path d="M9.59115 24.7715C9.59115 24.7715 9.57739 24.7439 9.56088 24.7027C9.54162 24.6641 9.51686 24.6009 9.49209 24.5376C9.44807 24.4138 9.40404 24.2872 9.40404 24.2872C9.37928 24.2157 9.41505 24.1359 9.48934 24.1111C9.53887 24.0946 9.59115 24.1056 9.62692 24.1386L9.64893 24.1579C9.64893 24.1579 9.72872 24.2322 9.81127 24.3037C9.84703 24.3395 9.88831 24.3725 9.92683 24.4C9.9626 24.4275 9.98736 24.444 9.98736 24.444H9.99286C10.1084 24.5348 10.1304 24.6999 10.0424 24.8155C9.95434 24.931 9.78925 24.9531 9.67369 24.865C9.63792 24.8375 9.61041 24.8017 9.5939 24.766L9.59115 24.7715Z" fill="#F27B7D"/>
<path d="M4.77054 22.2879C4.77054 22.2879 4.02489 24.39 4.26977 25.5264C4.51465 26.6628 5.89315 29.3482 11.5337 30.6744C17.5127 32.0777 20.8337 29.6041 20.8337 29.6041C23.2743 29.5271 29.7128 24.1644 28.1857 15.4862C26.9448 8.43416 17.9254 5.76797 11.7125 7.43262C5.49968 9.09727 2.61062 17.1206 4.77054 22.2906V22.2879Z" stroke="#251F22" stroke-width="0.688945" stroke-linecap="round" stroke-linejoin="round"/>
<path d="M13.1983 26.6367C13.6523 27.253 13.6936 28.7223 12.3646 29.3139C10.7935 30.0128 8.09159 28.8626 8.82898 26.1387C9.84979 26.4909 11.707 26.7137 13.1983 26.6339V26.6367Z" fill="#C2324A"/>
<path d="M12.3646 29.3151C13.025 29.0207 13.3442 28.5117 13.4487 27.9971C11.8309 26.8525 10.0204 27.378 9.06561 28.3163C9.76173 29.4196 11.3163 29.7801 12.3674 29.3123L12.3646 29.3151Z" fill="#F25A73"/>
<path d="M13.424 27.1441C13.3744 26.946 13.2974 26.7727 13.1983 26.6378C11.707 26.7176 9.84978 26.4948 8.82898 26.1426C8.7767 26.3324 8.74369 26.5113 8.72443 26.6874C9.58289 27.2652 11.7153 27.909 13.424 27.1469V27.1441Z" fill="white"/>
<path d="M8.82898 26.1414C9.84979 26.4936 11.707 26.7165 13.1983 26.6367C13.6523 27.253 13.6936 28.7223 12.3646 29.3139C10.7935 30.0128 8.09159 28.8626 8.82898 26.1387V26.1414Z" stroke="#251F22" stroke-width="0.413367" stroke-linecap="round" stroke-linejoin="round"/>
<path d="M8.31995 25.8069C8.31995 25.8069 8.35572 25.8179 8.4135 25.8372C8.46853 25.8537 8.54282 25.8839 8.61711 25.9005C8.75744 25.9252 8.89776 25.9472 8.89776 25.9472H8.90877C9.02433 25.9692 9.10137 26.0793 9.08211 26.1921C9.06285 26.3077 8.95279 26.3847 8.83723 26.3655C8.80972 26.36 8.78495 26.3517 8.76294 26.3379C8.76294 26.3379 8.61986 26.2499 8.47679 26.1618C8.408 26.1178 8.35572 26.0655 8.30895 26.0298C8.26492 25.994 8.23466 25.9692 8.23466 25.9692C8.19338 25.9362 8.18788 25.8784 8.2209 25.8372C8.24566 25.8069 8.28693 25.7959 8.3227 25.8069H8.31995Z" fill="#251F22"/>
<path d="M6.64705 17.5998C6.64705 17.5998 7.97051 16.7716 9.75347 17.8365" stroke="#251F22" stroke-width="0.551156" stroke-linecap="round" stroke-linejoin="round"/>
<path d="M15.383 18.4264C15.383 18.4264 18.0767 17.4579 20.6411 19.5463" stroke="#251F22" stroke-width="0.551156" stroke-linecap="round" stroke-linejoin="round"/>
<path d="M17.4244 19.7109C17.6413 19.6671 17.8185 19.7429 17.9371 19.8779C18.0419 19.9975 18.0923 20.1518 18.1177 20.2725C18.1846 20.5866 18.2166 20.907 18.2252 21.2207H18.2242C18.2283 21.3023 18.2304 21.3839 18.23 21.4648L18.2252 21.7109C18.2233 21.7672 18.2187 21.8221 18.2154 21.876C18.7572 22.0571 19.3339 22.2942 19.8111 22.6602L20.025 22.8242L19.9683 22.8799C20.0369 23.0341 20.0381 23.2152 19.9566 23.3721L19.9556 23.374C19.8254 23.6194 19.572 23.6654 19.4468 23.6904L19.4459 23.6895C19.0561 23.7734 18.6571 23.7998 18.272 23.7998C18.1607 23.7998 18.0494 23.7967 17.9381 23.791V23.79C17.9156 23.7891 17.893 23.7857 17.8736 23.7832C17.8539 23.8502 17.8357 23.9173 17.8131 23.9824L17.6959 24.293C17.5522 24.6479 17.3741 25.0128 17.1275 25.334L17.1285 25.335C16.9044 25.6296 16.4276 25.7118 16.149 25.3682C16.0445 25.2398 15.9991 25.08 15.9742 24.9502C15.9496 24.8222 15.9377 24.6778 15.9273 24.5918L15.9009 24.3174C15.8818 24.042 15.8847 23.7654 15.9039 23.4941C15.9051 23.4755 15.907 23.4565 15.9088 23.4375C15.8922 23.4327 15.8751 23.4282 15.858 23.4229L15.855 23.4219C15.6862 23.3675 15.5177 23.3048 15.355 23.2363H15.3541C15.2089 23.175 14.8679 23.0472 14.5972 22.8711C14.4618 22.7829 14.3212 22.669 14.23 22.5244C14.1323 22.3692 14.0916 22.1767 14.1724 21.9717L14.1734 21.9707C14.2583 21.7586 14.4337 21.655 14.5865 21.6016C14.7314 21.5509 14.8972 21.5319 14.9937 21.5166H14.9947C15.3166 21.4673 15.6394 21.4534 15.9586 21.4619H15.9595C16.0825 21.4657 16.2024 21.4744 16.3209 21.4854C16.3548 21.3858 16.3878 21.286 16.4244 21.1885L16.4254 21.1865C16.536 20.8972 16.6645 20.6141 16.817 20.3438L16.8961 20.1973C16.9288 20.138 16.9669 20.073 17.0074 20.0156C17.089 19.9001 17.2221 19.7525 17.4244 19.7119V19.7109Z" fill="#FFBA3A" stroke="#251F22" stroke-width="0.472427"/>
<path d="M7.96571 18.4443C8.05491 18.4221 8.14692 18.4228 8.23426 18.4561C8.3201 18.4887 8.38314 18.5452 8.42762 18.6035C8.46937 18.6583 8.49896 18.7205 8.5204 18.7812L8.56434 18.9531V18.9541C8.60801 19.2249 8.62487 19.4995 8.62489 19.7705C8.62489 19.9063 8.62149 20.047 8.61317 20.1885L8.61415 20.1895C8.61261 20.231 8.60802 20.2717 8.60536 20.3115C8.95338 20.4372 9.32338 20.5986 9.64735 20.8398L9.78895 20.9541L9.79383 20.958L9.8534 21.0225C9.97687 21.1834 9.99143 21.4082 9.90614 21.5869L9.90516 21.5889C9.82235 21.7583 9.68043 21.8281 9.57411 21.8633L9.48329 21.8896C9.17704 21.9699 8.86548 22.0021 8.5663 22.0078H8.30848V22.0068C8.30663 22.0068 8.30448 22.006 8.30262 22.0059C8.2625 22.1471 8.21768 22.2859 8.1659 22.4199L8.16688 22.4209C8.05054 22.733 7.9053 23.052 7.7118 23.335L7.71083 23.3369C7.61698 23.4722 7.47181 23.5662 7.30946 23.583C7.13991 23.6006 6.97077 23.53 6.86024 23.375V23.376C6.77674 23.26 6.74326 23.1161 6.72645 23.0059C6.70953 22.8948 6.70405 22.7741 6.69813 22.6982L6.68251 22.46C6.67317 22.2227 6.68094 21.986 6.70008 21.752L6.70106 21.7441C6.70177 21.738 6.7023 21.7317 6.70301 21.7256C6.57521 21.6819 6.44547 21.6312 6.32313 21.5771L6.3202 21.5762C6.21761 21.529 5.9494 21.4217 5.73915 21.2705C5.63252 21.1938 5.51959 21.0916 5.44813 20.96C5.37188 20.8192 5.34747 20.6513 5.41297 20.4736L5.44227 20.4072C5.51773 20.2603 5.64067 20.1775 5.75575 20.1299C5.87412 20.081 6.01169 20.0598 6.07899 20.0459H6.08094C6.33393 19.9953 6.58649 19.9776 6.83094 19.9775C6.91125 19.9775 6.99123 19.9808 7.06922 19.9863C7.0948 19.9079 7.11906 19.8293 7.1454 19.7549C7.23393 19.5037 7.34024 19.255 7.46083 19.0195V19.0186C7.49113 18.96 7.54891 18.832 7.61317 18.7314C7.67557 18.6339 7.78617 18.4902 7.96376 18.4443H7.96571Z" fill="#FFBA3A" stroke="#251F22" stroke-width="0.472427"/>
<path d="M20.1403 7.93353C20.1981 4.94266 22.1517 2.75523 22.4213 2.85428C22.691 2.95334 22.812 4.67852 22.812 4.67852C24.4272 2.93958 28.9781 2.03709 29.146 2.39479C29.3138 2.75248 28.3508 4.60973 28.3508 4.60973C33.2842 4.78583 36.8666 7.27042 36.6823 7.75468C36.4979 8.24169 34.5444 9.32578 33.851 9.40832C36.2613 10.5777 36.9382 12.047 36.9024 12.1983C36.8666 12.3497 34.8003 13.9125 33.1301 14.0996C33.8097 14.6664 34.3105 15.9844 34.1289 16.155C33.9473 16.3256 32.5798 16.4274 30.6538 16.0587C30.7556 16.5237 30.9427 17.3133 30.695 17.3409C30.4474 17.3684 27.5473 16.9667 23.8906 14.7765C20.2339 12.5863 20.1376 7.93353 20.1376 7.93353H20.1403Z" fill="#FF6CBD" stroke="#251F22" stroke-width="0.688945" stroke-linecap="round" stroke-linejoin="round"/>
<path d="M28.4773 17.8106C26.0285 20.3199 21.6812 20.0475 18.7646 17.1997C15.8508 14.3547 15.4711 10.0129 17.9199 7.50625C20.3687 4.99689 24.7188 5.27204 27.6326 8.11708C30.5492 10.9621 30.9262 15.304 28.4773 17.8106Z" fill="#50AAFF" stroke="#251F22" stroke-width="0.688945" stroke-linecap="round" stroke-linejoin="round"/>
<path d="M23.0569 7.35936L24.2731 4.2832L25.4204 5.63418L27.4868 4.97658L27.5226 6.98241L29.5669 7.74457L26.7246 9.79443C26.7246 9.79443 25.0875 8.4462 23.0569 7.35936Z" fill="#FFC21A" stroke="#251F22" stroke-width="0.688945" stroke-linecap="round" stroke-linejoin="round"/>
<path d="M9.03259 7.3754C9.03259 7.3754 14.9043 2.77216 24.086 7.61753C33.1631 12.4106 31.4022 21.3474 29.0579 24.0879C27.9628 26.6248 26.0973 28.5398 23.731 28.5343C23.731 28.5343 24.3886 23.6669 22.3883 20.0102C18.5885 13.0627 7.87697 12.251 7.87697 12.251L9.02984 7.3754H9.03259Z" fill="#FF6CBD"/>
<path d="M19.9257 16.9694C20.8887 17.8223 21.7389 18.8266 22.3883 20.0098C24.3886 23.6665 23.731 28.5339 23.731 28.5339C26.0973 28.5394 27.9628 26.6243 29.0579 24.0875C29.9576 23.0364 30.7666 21.0746 30.9152 18.7881C28.9644 18.0507 24.7023 16.719 19.9257 16.9694Z" fill="#A73F78"/>
<path d="M9.03259 7.3754C9.03259 7.3754 14.9043 2.77216 24.086 7.61753C33.1631 12.4106 31.4022 21.3474 29.0579 24.0879C27.9628 26.6248 26.0973 28.5398 23.731 28.5343C23.731 28.5343 24.3886 23.6669 22.3883 20.0102C18.5885 13.0627 7.87697 12.251 7.87697 12.251L9.02984 7.3754H9.03259Z" stroke="#251F22" stroke-width="0.688945" stroke-linecap="round" stroke-linejoin="round"/>
<path d="M20.8337 29.6029C21.3537 29.8203 22.9276 29.9578 24.163 28.9535C25.4314 27.9217 26.521 25.4124 24.4657 24.6777C22.4323 23.9513 21.4528 26.4635 21.4528 26.4635L20.8337 29.6029Z" fill="#FFECE1"/>
<path d="M22.336 28.8636C22.1709 29.0672 21.893 29.1112 21.7169 28.9681C21.5408 28.8223 21.5326 28.5416 21.6977 28.3408C21.8628 28.1399 22.1407 28.0931 22.3168 28.2362C22.4929 28.3793 22.5011 28.6627 22.336 28.8636Z" fill="#251F22"/>
<path d="M23.8906 26.5596C23.8521 26.5733 23.8356 26.5871 23.8108 26.6009C23.7861 26.6146 23.7558 26.6339 23.731 26.6504C23.676 26.6807 23.6237 26.7247 23.5714 26.7632C23.5192 26.8017 23.4696 26.8512 23.4201 26.8925C23.3678 26.9338 23.3266 26.9861 23.2798 27.0328C23.2358 27.0824 23.1862 27.1264 23.1477 27.1842L23.0266 27.3438C22.9854 27.3933 22.9551 27.4593 22.9193 27.5144L22.8175 27.6849L22.4708 27.1649H22.6937C22.768 27.1649 22.845 27.1842 22.9166 27.1952C22.9909 27.2089 23.0624 27.2447 23.134 27.2695C23.2055 27.2997 23.2715 27.3493 23.3348 27.3878C23.3678 27.407 23.3953 27.4401 23.4229 27.4676L23.5054 27.5529C23.5522 27.6162 23.5935 27.6849 23.6292 27.7537C23.654 27.828 23.6815 27.8996 23.698 27.9739C23.7063 28.0481 23.7118 28.1224 23.7173 28.194C23.7255 28.315 23.632 28.4223 23.5109 28.4278C23.4091 28.4334 23.3156 28.3701 23.2853 28.2738L23.266 28.2132C23.2523 28.172 23.2413 28.1334 23.233 28.0949C23.2137 28.0591 23.1945 28.0289 23.178 27.9959L23.1037 27.9188L23.0569 27.8913C23.0404 27.8831 23.0321 27.8693 23.0129 27.8638L22.9606 27.8445C22.9441 27.839 22.9303 27.828 22.9111 27.828C22.8726 27.828 22.8395 27.8115 22.801 27.8143C22.7625 27.817 22.724 27.8143 22.6855 27.8198C22.6469 27.828 22.6057 27.8363 22.5671 27.8418C22.38 27.872 22.204 27.7455 22.1737 27.5584C22.1599 27.4758 22.1764 27.396 22.215 27.33L22.2205 27.319L22.369 27.1291C22.4213 27.0686 22.4626 26.9998 22.5231 26.9448L22.6937 26.7715C22.746 26.7109 22.812 26.6641 22.8753 26.6119C22.9386 26.5596 22.9964 26.5073 23.0679 26.4633C23.1367 26.4193 23.2 26.3697 23.2715 26.3312C23.3431 26.2927 23.4119 26.2487 23.4889 26.2157C23.5274 26.1991 23.5604 26.1826 23.6045 26.1661C23.6457 26.1496 23.6953 26.1304 23.7283 26.1221H23.7393C23.8631 26.0891 23.9897 26.1634 24.0199 26.2872C24.0474 26.4 23.9869 26.5156 23.8796 26.5568L23.8906 26.5596Z" fill="#251F22"/>
<path d="M22.8368 25.1909C22.8368 25.1909 22.7377 25.2624 22.5892 25.3697C22.5121 25.422 22.4626 25.4825 22.3856 25.5486C22.3113 25.6063 22.2397 25.7054 22.1599 25.7852C22.0856 25.8705 22.0169 25.964 21.9508 26.0493C21.893 26.1401 21.8298 26.2199 21.7885 26.297C21.7417 26.3713 21.7059 26.4345 21.6839 26.4786C21.6619 26.5198 21.6482 26.5446 21.6482 26.5446L21.6399 26.5611C21.5849 26.6629 21.4583 26.7014 21.3592 26.6464C21.2657 26.5969 21.2272 26.4868 21.2602 26.3905C21.2602 26.3905 21.2712 26.3575 21.2932 26.3025C21.3125 26.2474 21.3427 26.1732 21.3813 26.0851C21.417 25.9943 21.4721 25.8953 21.5243 25.7852C21.5849 25.6806 21.6454 25.5651 21.7169 25.455C21.7967 25.3477 21.8545 25.2376 21.9453 25.1358C22.0306 25.0395 22.1132 24.9295 22.1819 24.8689C22.314 24.7424 22.4048 24.6598 22.4048 24.6598C22.5424 24.5278 22.7625 24.536 22.8918 24.6736C23.0239 24.8112 23.0156 25.0313 22.8781 25.1606C22.8671 25.1716 22.8561 25.1799 22.8423 25.1909H22.8395H22.8368Z" fill="#251F22"/>
<path d="M20.8337 29.6033C21.3537 29.8206 22.9276 29.9582 24.163 28.9539C25.4314 27.9221 26.521 25.4127 24.4657 24.6781C23.7035 24.4057 23.0872 24.5873 22.6194 24.923" stroke="#251F22" stroke-width="0.688945" stroke-linecap="round" stroke-linejoin="round"/>
<path d="M20.9025 23.1441C21.0786 20.5027 18.7591 17.9906 18.6655 17.8888C18.0547 18.9894 17.3366 19.4819 17.3366 19.4819L17.144 18.4996C15.8948 19.8093 13.3442 20.9567 11.5117 21.3171C10.8238 20.8549 9.64617 19.4819 9.08762 18.395C9.08762 18.395 8.90327 19.1985 8.80697 19.9771C8.62262 19.9056 7.63484 18.4611 7.35694 16.524C7.35694 16.524 5.90415 17.7512 4.95214 20.2523C4.95214 21.2043 5.10622 22.1426 5.55471 22.8607C3.54338 22.8855 0.42044 21.4299 0.962482 16.2654C1.39171 12.1904 3.82403 10.8752 3.82403 10.8752V10.8642C2.7482 10.6056 1.57606 9.78289 1.7439 8.15676C2.69317 8.85839 4.64947 9.10878 7.58531 7.73854C10.5294 6.36555 11.9684 6.12342 14.2246 6.42883C16.4038 6.16744 22.7405 6.79478 26.0835 10.2864C29.0194 12.5179 28.9616 16.5048 30.197 17.5558C29.5972 18.384 28.8791 18.1254 28.8791 18.1254C28.8791 18.1254 29.3276 20.7943 27.374 23.6036C25.558 26.2148 21.783 26.3964 19.1278 25.4361C19.9863 24.9876 20.5586 24.1319 20.9053 23.1414L20.9025 23.1441Z" fill="#FF6CBD"/>
<path d="M28.9231 14.7822C27.4868 14.8565 24.8701 14.9968 23.4999 15.1207C22.5451 15.206 22.6745 15.8443 23.8796 16.7413C24.639 17.3053 26.5898 18.3784 28.9176 19.1076C28.9396 18.4995 28.8791 18.1308 28.8791 18.1308C28.8791 18.1308 29.5972 18.3894 30.197 17.5612C29.6412 17.088 29.3468 16.0176 28.9231 14.785V14.7822Z" fill="#FFB2DC"/>
<path d="M3.6837 14.2189C3.76625 13.8639 2.62438 13.6878 1.63385 13.6025C1.38621 14.1748 1.1771 14.8517 1.04503 15.6469C2.44554 15.38 3.58465 14.6288 3.68095 14.2161L3.6837 14.2189Z" fill="#FFB2DC"/>
<path d="M11.575 10.3081C11.6713 9.78253 10.0424 10.4401 9.0491 12.8394C8.30069 14.6472 8.89501 16.7768 9.28297 16.4824C9.67093 16.1852 11.2778 11.9369 11.5722 10.3108L11.575 10.3081Z" fill="#FFB2DC"/>
<path d="M12.4554 11.5617C12.3289 10.8629 11.3604 12.4532 11.231 13.2622C11.0439 14.4233 11.3383 14.8993 11.5832 14.814C11.8281 14.7315 12.6013 12.3679 12.4554 11.5617Z" fill="#FFB2DC"/>
<path d="M13.3992 12.7596C13.3662 12.3936 12.7829 12.4899 12.6068 13.2768C12.4802 13.8326 12.7333 14.4875 12.8351 14.3582C12.937 14.2288 13.457 13.3731 13.402 12.7596H13.3992Z" fill="#FFB2DC"/>
<path d="M7.76966 13.084C7.76966 13.084 5.04844 14.7899 4.90811 19.7591L5.02643 20.0728C5.81335 18.1082 6.88918 16.9718 7.23862 16.6362C7.23862 16.6362 6.93046 15.2879 7.76966 13.0867V13.084Z" fill="#A73F78"/>
<path d="M19.4167 15.5879C19.4167 15.5879 21.2905 17.7726 21.2932 19.5583C21.2932 21.344 20.963 22.5299 20.963 22.5299C20.963 22.5299 21.0346 20.6699 18.7453 17.9762L19.4167 15.5906V15.5879Z" fill="#A73F78"/>
<path d="M18.5362 17.3824C18.5362 17.3824 18.5692 17.3136 18.627 17.1926C18.6545 17.132 18.6903 17.0577 18.7288 16.9752C18.7591 16.8954 18.7949 16.8019 18.8334 16.7028C18.8719 16.6037 18.9159 16.4964 18.9462 16.3726C18.982 16.2516 19.0232 16.125 19.0563 15.9929C19.0865 15.8581 19.114 15.7178 19.1471 15.5774C19.1828 15.4371 19.1911 15.2885 19.2131 15.14C19.2351 14.9941 19.2544 14.8455 19.2571 14.6997C19.2654 14.5539 19.2736 14.4081 19.2819 14.2705C19.2846 14.1302 19.2764 13.9953 19.2764 13.866C19.2736 13.7367 19.2709 13.6156 19.2681 13.5028C19.2241 13.0543 19.1938 12.7544 19.1938 12.7544V12.7434C19.1856 12.6636 19.2434 12.5893 19.3259 12.5838C19.4029 12.5756 19.4717 12.6306 19.4855 12.7049C19.4855 12.7049 19.5405 13.0103 19.6231 13.4698C19.6341 13.5854 19.6478 13.7119 19.6643 13.844C19.6753 13.9761 19.6974 14.1192 19.7056 14.265C19.7084 14.4108 19.7139 14.5649 19.7166 14.719C19.7249 14.8731 19.7166 15.0299 19.7056 15.1867C19.6946 15.3436 19.6974 15.5032 19.6726 15.6572C19.6533 15.8113 19.6313 15.9654 19.6121 16.1112C19.5873 16.2571 19.5515 16.3974 19.524 16.5322C19.4992 16.667 19.4607 16.7936 19.425 16.9119C19.3892 17.0302 19.3562 17.1375 19.3287 17.2311C19.2956 17.3191 19.2681 17.3934 19.2434 17.4567C19.1966 17.5805 19.1691 17.6548 19.1691 17.6548C19.103 17.8337 18.9049 17.9217 18.7261 17.8557C18.5472 17.7896 18.4592 17.5915 18.5252 17.4127C18.528 17.4044 18.5335 17.3962 18.5362 17.3879V17.3824Z" fill="#251F22"/>
<path d="M7.34593 14.6211C7.25238 15.2842 7.27164 15.928 7.35694 16.5224C7.63759 18.4594 8.62537 19.9039 8.80697 19.9755C8.90327 19.1968 9.08762 18.3934 9.08762 18.3934C9.64617 19.483 10.8238 20.8532 11.5117 21.3155C13.3442 20.955 15.8948 19.8076 17.144 18.4979L17.3366 19.4802C17.3366 19.4802 18.0547 18.985 18.6655 17.8871C18.7288 17.7715 18.7921 17.6477 18.8526 17.5184" stroke="#251F22" stroke-width="0.688945" stroke-linecap="round" stroke-linejoin="round"/>
<path d="M12.2436 8.6186C12.2436 8.6186 12.2161 8.63235 12.1638 8.65712C12.1143 8.68188 12.0372 8.7204 11.9409 8.77268C11.7483 8.87448 11.4814 9.03682 11.176 9.25144C11.0219 9.35874 10.8623 9.47981 10.6945 9.61463C10.5294 9.75221 10.3561 9.89528 10.1882 10.0576C10.1057 10.1374 10.0204 10.22 9.93233 10.3025C9.84978 10.3906 9.76724 10.4786 9.68469 10.5666C9.5196 10.7455 9.36552 10.9408 9.21144 11.1335C9.06836 11.3343 8.91428 11.5297 8.79321 11.7388C8.72993 11.8406 8.66664 11.9424 8.60336 12.0442C8.54833 12.1488 8.4933 12.2533 8.43827 12.3551C8.32546 12.556 8.23741 12.7596 8.15212 12.9549C8.1301 13.0045 8.11084 13.0512 8.08883 13.098L8.05857 13.1668L8.04206 13.1998C8.0338 13.2191 8.05031 13.1806 8.04756 13.1861V13.1916L8.04206 13.1998L8.03655 13.2191C8.00629 13.3181 7.97602 13.4117 7.94575 13.5025C7.89072 13.6841 7.83019 13.8519 7.79442 13.995C7.76966 14.1353 7.7504 14.2564 7.73389 14.3582C7.69812 14.5591 7.67886 14.6719 7.67886 14.6719L7.67061 14.7131C7.63759 14.9002 7.45874 15.0241 7.27164 14.991C7.08454 14.958 6.96072 14.7792 6.99374 14.5921C6.99374 14.5866 6.99374 14.5811 6.99649 14.5756C6.99649 14.5756 7.02676 14.4407 7.08179 14.2069C7.1093 14.0913 7.14232 13.9482 7.18084 13.7859C7.22762 13.6346 7.29365 13.475 7.35969 13.2961C7.39271 13.2081 7.42847 13.1145 7.46424 13.0182L7.48626 12.9632L7.50552 12.9274L7.54129 12.8531C7.56605 12.8036 7.59081 12.7541 7.61558 12.7046C7.71463 12.5009 7.81919 12.2891 7.95126 12.0827C8.01454 11.9782 8.07783 11.8709 8.14386 11.7635C8.2154 11.659 8.28969 11.5544 8.36398 11.4499C8.50431 11.2353 8.67765 11.0372 8.83999 10.8335C9.01333 10.6382 9.18392 10.4428 9.36827 10.264C9.45907 10.1759 9.54987 10.0879 9.64067 9.99984C9.73422 9.9173 9.82777 9.8375 9.92132 9.75771C10.1029 9.59812 10.2928 9.4578 10.4716 9.32573C10.6532 9.19641 10.8266 9.07809 10.9916 8.97629C11.6465 8.56357 12.1418 8.37646 12.1418 8.37646C12.2106 8.34895 12.2904 8.38472 12.3151 8.45626C12.3399 8.52229 12.3096 8.59658 12.2463 8.6241L12.2436 8.6186Z" fill="#251F22"/>
<path d="M18.6628 17.8838C18.7563 17.9883 21.0758 20.5005 20.8997 23.1419C20.8997 23.1446 20.8997 23.1474 20.8997 23.1501" stroke="#251F22" stroke-width="0.688945" stroke-linecap="round" stroke-linejoin="round"/>
<path d="M4.95214 20.253C4.95214 21.2051 5.10622 22.1433 5.55471 22.8614C3.54337 22.8862 0.420438 21.4307 0.962481 16.2661C1.39171 12.1912 3.82403 10.876 3.82403 10.876" stroke="#251F22" stroke-width="0.688945" stroke-linecap="round" stroke-linejoin="round"/>
<path d="M5.8161 16.231C5.8161 16.231 5.79959 16.2943 5.76932 16.4016C5.74181 16.5089 5.70329 16.663 5.65926 16.8501C5.61249 17.0372 5.57397 17.2573 5.52719 17.4912C5.48867 17.7278 5.4419 17.9782 5.40888 18.2313C5.38136 18.4845 5.33734 18.7376 5.32909 18.9743C5.31533 19.2109 5.29056 19.4337 5.29332 19.6208V20.2757C5.29332 20.4656 5.13923 20.6196 4.94938 20.6196C4.75953 20.6196 4.60544 20.4656 4.60544 20.2757C4.60544 20.2674 4.60544 20.2592 4.60544 20.2509C4.60544 20.2509 4.62471 19.984 4.65222 19.5823C4.66598 19.3815 4.70725 19.1531 4.73752 18.9055C4.76503 18.6578 4.82832 18.3992 4.87509 18.1378C4.92737 17.8792 4.9934 17.6233 5.04843 17.3811C5.11447 17.1418 5.1695 16.9189 5.23003 16.7318C5.28506 16.5419 5.33734 16.3851 5.37586 16.275C5.41438 16.165 5.43364 16.1044 5.43364 16.1044C5.46941 15.9999 5.58497 15.9449 5.68953 15.9806C5.78858 16.0164 5.84637 16.121 5.81885 16.2228V16.2283L5.8161 16.231Z" fill="#251F22"/>
<path d="M20.5751 23.0404C20.5751 23.0404 20.5998 22.9688 20.6411 22.8395C20.6631 22.7762 20.6879 22.6992 20.7181 22.6112C20.7457 22.5231 20.7869 22.4213 20.8062 22.3167C20.831 22.2122 20.8585 22.0994 20.886 21.9783C20.919 21.86 20.9438 21.7307 20.9603 21.5904C20.9823 21.4528 21.0043 21.3125 21.0263 21.1666C21.0373 21.0208 21.0511 20.8722 21.0621 20.7236C21.0786 20.5751 21.0786 20.4265 21.0786 20.2806C21.0786 20.1348 21.0868 19.989 21.0786 19.8514C21.0676 19.7138 21.0593 19.579 21.0511 19.4497C21.0483 19.3204 21.0181 19.2048 21.0043 19.0948C20.985 18.9847 20.974 18.8829 20.9548 18.7976C20.9328 18.7123 20.9107 18.638 20.897 18.5747C20.864 18.4509 20.8447 18.3794 20.8447 18.3794L20.8392 18.3574C20.8144 18.2583 20.8722 18.1565 20.9713 18.129C21.0676 18.1042 21.1639 18.1593 21.1941 18.2501C21.1941 18.2501 21.2189 18.3271 21.2629 18.4592C21.2849 18.5252 21.3125 18.6077 21.3427 18.6985C21.3702 18.7921 21.3895 18.8994 21.417 19.015C21.439 19.1305 21.4776 19.2571 21.4913 19.3919C21.5106 19.5267 21.5298 19.6671 21.5491 19.8156C21.5711 19.9615 21.5711 20.1156 21.5821 20.2696C21.5931 20.4237 21.6014 20.5833 21.5931 20.7401C21.5931 20.897 21.5876 21.0566 21.5849 21.2107C21.5711 21.3647 21.5573 21.5188 21.5436 21.6674C21.5326 21.816 21.5161 21.9591 21.4886 22.0966C21.4638 22.2342 21.4418 22.3635 21.4198 22.4846C21.4005 22.6084 21.3702 22.7047 21.3455 22.7955C21.3207 22.8863 21.3015 22.9633 21.2822 23.0294C21.2492 23.1587 21.2272 23.233 21.2272 23.233C21.1776 23.4173 20.9905 23.5246 20.8062 23.4779C20.6218 23.4283 20.5118 23.2412 20.5613 23.0569C20.5613 23.0486 20.5668 23.0404 20.5668 23.0349L20.5751 23.0404Z" fill="#251F22"/>
<path d="M29.3386 16.0078C29.5834 16.6957 29.8338 17.2487 30.1943 17.5569C29.5944 18.3851 28.8763 18.1265 28.8763 18.1265C28.8763 18.1265 29.3248 20.7954 27.3712 23.6047C25.5553 26.2158 21.7802 26.3974 19.125 25.4372C19.9835 24.9887 20.5558 24.1329 20.9025 23.1424" stroke="#251F22" stroke-width="0.688945" stroke-linecap="round" stroke-linejoin="round"/>
<path d="M26.2046 10.1357C26.2046 10.1357 26.2872 10.199 26.4302 10.3146C26.5018 10.3723 26.5898 10.4356 26.6889 10.5292C26.7852 10.62 26.9062 10.719 27.0135 10.8373C27.1236 10.9557 27.2529 11.0767 27.3657 11.2226C27.4868 11.3656 27.6106 11.517 27.7262 11.6821C27.85 11.8444 27.9573 12.0232 28.0729 12.1993C28.1774 12.3837 28.293 12.5653 28.3893 12.7579C28.7938 13.5173 29.0854 14.3207 29.3028 14.9123C29.5174 15.4984 29.6605 15.8891 29.6605 15.8891V15.9001C29.7293 16.0789 29.6385 16.277 29.4596 16.3403C29.2808 16.4064 29.0827 16.3128 29.0194 16.134C29.0194 16.1285 29.0166 16.123 29.0139 16.1202C29.0139 16.1202 28.8873 15.7185 28.6975 15.1159C28.5104 14.5216 28.26 13.7347 27.9105 12.9973C27.828 12.8102 27.7289 12.6341 27.6354 12.4552C27.5336 12.2846 27.44 12.1113 27.33 11.9545C27.2282 11.7921 27.1181 11.6463 27.0135 11.5087C26.9117 11.3656 26.7962 11.2501 26.6999 11.1318C26.6008 11.0162 26.499 10.9281 26.4165 10.8373C26.3339 10.7493 26.2459 10.6778 26.1771 10.62C26.0395 10.5017 25.9597 10.4329 25.9597 10.4329C25.8772 10.3641 25.8689 10.2403 25.9377 10.1577C26.0065 10.0779 26.1248 10.0669 26.2046 10.133V10.1357Z" fill="#251F22"/>
<path d="M9.22244 6.66371C9.22244 6.66371 9.29673 6.63895 9.42605 6.60043C9.49209 6.58117 9.56913 6.5564 9.65993 6.52614C9.75073 6.49862 9.84978 6.46285 9.9681 6.43259C10.2047 6.37756 10.4771 6.28676 10.7743 6.23998C10.9229 6.21247 11.0742 6.17945 11.231 6.15744C11.3879 6.14093 11.5474 6.12167 11.7098 6.10241C11.8694 6.08315 12.0317 6.0859 12.1885 6.07764C12.3454 6.06664 12.5022 6.07214 12.6508 6.07764C12.7994 6.0859 12.9452 6.08039 13.0828 6.0969C13.2176 6.11066 13.3469 6.12167 13.4652 6.13267C13.7019 6.15469 13.8972 6.19045 14.032 6.20696C14.1696 6.22622 14.2467 6.23723 14.2467 6.23723C14.3485 6.25099 14.42 6.34729 14.4062 6.45185C14.3925 6.5509 14.3017 6.61969 14.2054 6.61143H14.1971C14.1971 6.61143 14.1201 6.60318 13.9853 6.59217C13.8504 6.58392 13.6606 6.55915 13.4322 6.55365C13.3167 6.5509 13.1928 6.5454 13.0635 6.54264C12.9314 6.53439 12.7966 6.54815 12.6535 6.54815C12.5105 6.5509 12.3646 6.5564 12.2188 6.57566C12.0702 6.59217 11.9216 6.60043 11.7731 6.62794C11.6245 6.65546 11.4759 6.68022 11.3301 6.70498C11.1843 6.73525 11.0439 6.77652 10.9064 6.80954C10.6312 6.87007 10.3891 6.96913 10.1745 7.03241C10.0671 7.06543 9.96534 7.10945 9.8773 7.14247C9.78925 7.17549 9.71221 7.20575 9.64892 7.23052C9.52236 7.28004 9.44807 7.30756 9.44807 7.30756C9.27197 7.37635 9.07111 7.2883 9.00232 7.10945C8.93354 6.93336 9.02158 6.7325 9.20043 6.66371C9.20593 6.66371 9.21419 6.65821 9.22244 6.65546V6.66371Z" fill="#251F22"/>
<path d="M3.82402 10.8651C2.74544 10.6065 1.57331 9.78379 1.74115 8.15766C2.69041 8.85929 4.64672 9.10968 7.58255 7.73944C8.2319 7.43677 8.80972 7.18914 9.33525 6.98828" stroke="#251F22" stroke-width="0.688945" stroke-linecap="round" stroke-linejoin="round"/>
<path d="M5.60975 10.972C5.60975 10.972 5.50519 11.0105 5.35111 11.0655C5.30983 11.0793 5.27406 11.0985 5.22179 11.1068C5.16951 11.1178 5.11723 11.1288 5.0622 11.1398C4.95214 11.1591 4.82557 11.1948 4.70726 11.2031C4.58894 11.2113 4.47063 11.2196 4.36057 11.2306C4.25051 11.2444 4.1432 11.2251 4.0524 11.2223C3.86805 11.2086 3.74699 11.2003 3.74699 11.2003C3.55714 11.1866 3.41406 11.0187 3.42782 10.8289C3.44157 10.639 3.60942 10.4959 3.79927 10.5097C3.81578 10.5097 3.83504 10.5125 3.85155 10.518L3.90658 10.5317C3.90658 10.5317 4.00013 10.5537 4.1432 10.5867C4.21474 10.6005 4.29453 10.6335 4.39084 10.6363C4.48439 10.6445 4.58619 10.6528 4.688 10.6638C4.7898 10.6748 4.8806 10.6638 4.97415 10.6638C5.02093 10.6638 5.06495 10.6638 5.10622 10.6638C5.1475 10.6665 5.19427 10.65 5.23554 10.6445C5.39788 10.6143 5.50519 10.595 5.50519 10.595H5.51069C5.62075 10.573 5.72531 10.6445 5.74457 10.7546C5.76383 10.8536 5.70605 10.9472 5.61525 10.9802L5.60975 10.972Z" fill="#251F22"/>
<path d="M7.35693 16.5254C7.35693 16.5254 5.90415 17.7526 4.95213 20.2537" stroke="#251F22" stroke-width="0.688945" stroke-linecap="round" stroke-linejoin="round"/>
<path d="M21.1226 3.94677C20.0413 1.72357 17.6888 1.01093 15.6939 2.07851C13.7734 3.10482 13.08 5.36654 15.0143 7.4219L15.7957 7.9832C15.7572 6.76979 17.8153 3.61659 21.1254 3.94677H21.1226Z" fill="#FF6CBD"/>
<path d="M15.826 7.65253C15.2097 6.62622 15.35 3.12083 18.063 1.62402C17.2815 1.52222 16.4616 1.66805 15.6912 2.07802C13.7706 3.10432 13.0773 5.36604 15.0116 7.4214L15.3115 7.63877L15.8178 7.68004C15.8178 7.68004 15.8205 7.66078 15.8233 7.65253H15.826Z" fill="#A73F78"/>
<path d="M20.1486 3.09909C20.1486 3.09909 20.0991 3.04681 20.011 2.95601C19.967 2.91199 19.912 2.85696 19.8514 2.79367C19.7909 2.73039 19.7194 2.65335 19.6451 2.60657C19.568 2.54879 19.4855 2.48551 19.4002 2.41947C19.3204 2.34518 19.2021 2.29841 19.0948 2.23512C18.982 2.18009 18.8747 2.1003 18.7481 2.06453C18.6243 2.02051 18.4977 1.97373 18.3711 1.92696C18.2391 1.89944 18.107 1.87468 17.9749 1.84991C17.8456 1.81414 17.7135 1.8224 17.5842 1.81414C17.4576 1.81414 17.3311 1.78938 17.2155 1.81414C17.0972 1.8279 16.9871 1.83891 16.8853 1.84991C16.7808 1.85542 16.69 1.88018 16.6102 1.90494C16.5276 1.92696 16.4589 1.94622 16.3983 1.95997C16.28 1.99024 16.214 2.0095 16.214 2.0095L16.192 2.015C16.1094 2.03702 16.0241 1.98749 16.0021 1.90219C15.9801 1.8224 16.0241 1.74261 16.1012 1.71509C16.1012 1.71509 16.1727 1.69033 16.2965 1.6463C16.3598 1.62429 16.4341 1.59678 16.5194 1.56651C16.6047 1.53349 16.7037 1.49772 16.8165 1.48397C16.9294 1.46195 17.0504 1.43994 17.177 1.41518C17.3036 1.38216 17.4439 1.39317 17.587 1.38216C17.73 1.37941 17.8786 1.36015 18.03 1.38766C18.1813 1.40417 18.3326 1.42343 18.4867 1.43994C18.6353 1.48122 18.7839 1.51974 18.9324 1.56101C19.0838 1.59127 19.2131 1.66832 19.3479 1.72335C19.48 1.78663 19.6121 1.83065 19.7276 1.9132C19.8432 1.98749 19.956 2.05903 20.0578 2.12506C20.1679 2.1911 20.2366 2.25713 20.3027 2.31492C20.3687 2.3727 20.4265 2.42222 20.4733 2.4635C20.5696 2.54604 20.6219 2.59282 20.6219 2.59282C20.7649 2.71663 20.7814 2.934 20.6549 3.07708C20.5311 3.22015 20.3137 3.23666 20.1706 3.11285C20.1624 3.10734 20.1569 3.09909 20.1486 3.09359V3.09909Z" fill="#251F22"/>
<path d="M16.9321 5.66518C17.8539 4.63887 19.2984 3.7639 21.1226 3.9455C20.919 3.52452 20.6686 3.15857 20.3825 2.84766" stroke="#251F22" stroke-width="0.688945" stroke-linecap="round" stroke-linejoin="round"/>
<path d="M15.6086 7.97145C15.6086 7.97145 15.6086 7.93018 15.6086 7.85864C15.6086 7.82012 15.6059 7.7816 15.6114 7.72657C15.6196 7.66879 15.6279 7.60275 15.6389 7.53396C15.6472 7.45967 15.6664 7.39364 15.6857 7.31935C15.7077 7.24781 15.7214 7.16526 15.7517 7.09097C15.804 6.93689 15.8673 6.7718 15.9416 6.61497C16.0076 6.45263 16.1012 6.3068 16.1754 6.16097C16.2607 6.0234 16.3433 5.89683 16.4148 5.78677C16.5717 5.57766 16.6735 5.43733 16.6735 5.43733C16.7863 5.28325 17.0036 5.25298 17.155 5.36579C17.3091 5.4786 17.3393 5.69597 17.2265 5.8473C17.2183 5.85831 17.21 5.86931 17.2017 5.87757L17.1852 5.89408C17.1852 5.89408 17.0779 6.00689 16.9183 6.17473C16.8441 6.26553 16.756 6.36733 16.6652 6.4829C16.5854 6.60396 16.4836 6.72503 16.4066 6.85985C16.3213 6.99192 16.2497 7.12674 16.1864 7.25881C16.1507 7.3221 16.1314 7.38813 16.1067 7.44867C16.0819 7.5092 16.0571 7.56973 16.0461 7.61651C16.0324 7.66603 16.0186 7.71281 16.0049 7.75133C15.9938 7.7926 15.9911 7.84213 15.9856 7.8779C15.9773 7.94944 15.9718 7.99071 15.9718 7.99071C15.9608 8.09527 15.8673 8.1668 15.7655 8.1558C15.6719 8.14479 15.6031 8.065 15.6031 7.97145H15.6086Z" fill="#251F22"/>
<path d="M15.87 0.997231C13.446 0.507466 11.4511 1.94374 11.088 4.17795C10.7385 6.32961 12.1143 8.2529 14.9235 7.96124L15.8425 7.68334C14.8547 6.97896 13.5973 3.42954 15.87 0.997231Z" fill="#FF6CBD"/>
<path d="M12.2023 6.88274C12.2023 6.88274 12.2381 6.91576 12.3014 6.97354C12.3344 7.0038 12.3701 7.03682 12.4142 7.07809C12.4609 7.12487 12.5022 7.14413 12.5545 7.1854C12.6068 7.22117 12.6535 7.2652 12.7196 7.30097C12.7856 7.33949 12.8572 7.37801 12.9287 7.41928C13.0002 7.4633 13.0855 7.48807 13.1653 7.52659C13.2451 7.56511 13.3332 7.59537 13.4212 7.61739C13.5093 7.64215 13.5946 7.67517 13.6854 7.69168C13.7762 7.70819 13.8642 7.72469 13.9495 7.7412C14.0348 7.76046 14.1201 7.76321 14.1999 7.77147C14.2797 7.77972 14.3567 7.78523 14.4283 7.79073C14.7117 7.79073 14.9043 7.79073 14.9043 7.79073H14.9153C15.0061 7.79073 15.0831 7.86502 15.0831 7.95582C15.0831 8.04111 15.0198 8.11265 14.9373 8.12366C14.9373 8.12366 14.7364 8.14842 14.431 8.17869C14.354 8.17869 14.2714 8.18144 14.1834 8.18419C14.0953 8.18419 14.0018 8.19245 13.9055 8.18419C13.8092 8.17594 13.7074 8.17043 13.6056 8.16218C13.5038 8.15393 13.402 8.12916 13.2974 8.11265C13.1928 8.09614 13.091 8.07413 12.9892 8.04111C12.8902 8.0081 12.7884 7.98884 12.6948 7.94756C12.6013 7.90904 12.5105 7.87052 12.4279 7.83475C12.3426 7.79898 12.2628 7.74395 12.1885 7.70268C12.117 7.65866 12.0372 7.61739 11.9959 7.58437C11.9464 7.5486 11.9051 7.51833 11.8694 7.49357C11.8006 7.44129 11.7593 7.41378 11.7593 7.41378C11.6052 7.30097 11.5722 7.08635 11.685 6.93227C11.7978 6.77818 12.0124 6.74516 12.1665 6.85798C12.1775 6.86623 12.1858 6.87448 12.1968 6.88274H12.2023Z" fill="#251F22"/>
<path d="M15.306 1.72913C15.4628 1.47599 15.6499 1.23111 15.87 0.997231C13.446 0.507466 11.4511 1.94374 11.088 4.17795C10.8981 5.33908 11.2145 6.43142 11.9822 7.14955" stroke="#251F22" stroke-width="0.688945" stroke-linecap="round" stroke-linejoin="round"/>
<path d="M14.5576 5.39026C14.5576 5.39026 14.5466 5.33248 14.5246 5.23067C14.5053 5.12887 14.4668 4.98854 14.4475 4.80144C14.4365 4.71064 14.4227 4.60884 14.409 4.50428C14.4035 4.39972 14.398 4.28966 14.3925 4.1741C14.3842 4.05854 14.387 3.94022 14.3925 3.81916C14.4007 3.69809 14.3925 3.57428 14.4172 3.45046C14.4338 3.32664 14.4503 3.20558 14.4668 3.08451C14.4888 2.96345 14.5218 2.84788 14.5466 2.73232C14.5713 2.61676 14.6016 2.5067 14.6401 2.40765C14.6759 2.30584 14.7089 2.20954 14.7419 2.11874C14.7694 2.02794 14.8135 1.95365 14.8465 1.88211C14.8795 1.81333 14.9098 1.75279 14.9345 1.70327C14.9841 1.60421 15.0116 1.54643 15.0116 1.54643C15.0941 1.37584 15.3005 1.3043 15.4738 1.38685C15.6444 1.46939 15.7159 1.67575 15.6334 1.8491C15.6279 1.8601 15.6224 1.87111 15.6169 1.87936L15.5976 1.90963C15.5976 1.90963 15.5674 1.9564 15.5178 2.0362C15.4931 2.07747 15.4601 2.127 15.427 2.18203C15.394 2.23981 15.3445 2.30034 15.3142 2.37738C15.2785 2.45167 15.2399 2.53422 15.1987 2.61951C15.1546 2.70481 15.1189 2.79836 15.0859 2.89741C15.0528 2.99647 15.0116 3.09552 14.9813 3.20283C14.9538 3.31013 14.9263 3.42019 14.9015 3.5275C14.8685 3.63756 14.863 3.75037 14.8437 3.86043C14.8245 3.97049 14.808 4.08055 14.8052 4.18511C14.7997 4.29242 14.7914 4.39422 14.7859 4.49327C14.7859 4.58958 14.7887 4.68313 14.7914 4.76567C14.7887 4.93351 14.8107 5.08484 14.819 5.18665C14.83 5.28845 14.8355 5.34899 14.8355 5.34899C14.8437 5.42328 14.7859 5.49206 14.7117 5.50032C14.6401 5.50582 14.5768 5.45905 14.5631 5.39026H14.5576Z" fill="#251F22"/>
<path d="M13.113 5.34059C13.113 5.34059 13.2066 5.15624 13.4157 4.96088C13.5175 4.85908 13.6523 4.75452 13.8064 4.66097C13.9605 4.56742 14.1393 4.48213 14.3237 4.42159C14.4145 4.38857 14.5108 4.36931 14.6043 4.34455C14.6979 4.31979 14.7942 4.31704 14.8822 4.30328C14.973 4.28677 15.0611 4.29778 15.1436 4.29502C15.2262 4.29227 15.306 4.30328 15.3775 4.31428C15.5206 4.32804 15.6389 4.36381 15.7187 4.38858C15.7985 4.41334 15.8425 4.42985 15.8425 4.42985C15.8948 4.44911 15.9196 4.50964 15.9003 4.56192C15.8865 4.59494 15.859 4.61695 15.8288 4.6252H15.8178C15.8178 4.6252 15.771 4.63896 15.6967 4.65272C15.6196 4.66372 15.5123 4.68023 15.3858 4.705C15.3225 4.716 15.2537 4.72701 15.1849 4.74627C15.1161 4.76553 15.0391 4.77653 14.9648 4.79855C14.8905 4.82056 14.8107 4.83432 14.7337 4.86458C14.6566 4.88935 14.5768 4.90861 14.4998 4.94162C14.1889 5.05168 13.8862 5.19201 13.6578 5.30482C13.4267 5.42038 13.2726 5.50018 13.2726 5.50018H13.2699C13.2121 5.53044 13.1406 5.50843 13.1103 5.45065C13.0938 5.41488 13.0938 5.37636 13.1103 5.34334L13.113 5.34059Z" fill="#251F22"/>
<path d="M13.7376 6.13643C13.7376 6.13643 13.7486 6.10341 13.7899 6.04563C13.8284 5.98785 13.8917 5.91356 13.9743 5.83652C14.0128 5.79525 14.0623 5.75673 14.1173 5.72096C14.1696 5.68244 14.2246 5.64116 14.2879 5.60815C14.3512 5.57513 14.4172 5.54211 14.4888 5.5146C14.5576 5.48433 14.6291 5.45406 14.7034 5.44306C14.7777 5.42655 14.852 5.41004 14.9263 5.39353C15.0006 5.37427 15.0749 5.38528 15.1464 5.38252C15.2179 5.38252 15.2867 5.38803 15.3528 5.38803C15.4188 5.38803 15.4793 5.40454 15.5344 5.42104C15.7572 5.48158 15.8893 5.54761 15.8893 5.54761C15.9388 5.57238 15.9581 5.63566 15.9333 5.68519C15.9196 5.70995 15.8975 5.72921 15.8728 5.73471L15.8535 5.74022C15.8535 5.74022 15.7104 5.78424 15.5206 5.809C15.4243 5.81176 15.317 5.85578 15.2014 5.87504C15.1436 5.8888 15.0859 5.8888 15.0281 5.91356C14.9703 5.93007 14.9098 5.94658 14.852 5.96584C14.7915 5.98235 14.7337 5.99335 14.6759 6.02087C14.6209 6.04288 14.5603 6.05939 14.5053 6.0759C14.4503 6.09516 14.398 6.11992 14.3457 6.13643C14.2934 6.15569 14.2439 6.16945 14.1999 6.18871C14.1091 6.22448 14.0293 6.24924 13.977 6.2685C13.922 6.28501 13.8862 6.30152 13.8862 6.30152C13.8257 6.32628 13.7569 6.30152 13.7321 6.23824C13.7211 6.21072 13.7211 6.18045 13.7321 6.15294L13.7404 6.13368L13.7376 6.13643Z" fill="#251F22"/>
<path d="M78.8363 1.58396C79.0551 1.50418 79.2757 1.4283 79.4989 1.35913C80.7863 0.960321 82.1113 0.772402 83.4515 0.772402C85.3796 0.772404 87.265 1.07355 89.0508 1.74938C90.5875 2.3278 91.9962 3.15317 93.224 4.24416C93.6763 3.77095 94.1614 3.32909 94.679 2.92081C95.8037 2.03383 97.0529 1.35808 98.3942 0.883806L98.4103 0.878405C99.8622 0.370805 101.374 0.148539 102.897 0.148539C104.201 0.148541 105.511 0.330545 106.781 0.756873L106.782 0.756198C106.788 0.758179 106.794 0.760961 106.8 0.76295C106.819 0.769275 106.838 0.774746 106.856 0.781179L106.856 0.78253C107.101 0.864065 107.342 0.955385 107.581 1.0526L122.928 0.453044L122.951 0.525963L123.154 0H139.551L139.452 1.58396C139.671 1.50418 139.891 1.4283 140.114 1.35913C141.402 0.960321 142.727 0.772402 144.067 0.772402C145.995 0.772404 147.881 1.07355 149.666 1.74938C151.203 2.3278 152.612 3.15317 153.84 4.24416C154.292 3.77095 154.777 3.32909 155.295 2.92081C156.419 2.03383 157.668 1.35808 159.01 0.883806L159.026 0.878405C160.478 0.370805 161.989 0.148539 163.513 0.148539C164.816 0.148541 166.126 0.330545 167.397 0.756873L167.397 0.756198C167.403 0.758179 167.409 0.760961 167.415 0.76295C167.434 0.769275 167.453 0.774746 167.472 0.781179L167.471 0.78253C168.658 1.17743 169.781 1.75332 170.795 2.53866L170.794 2.54001C171.743 3.2581 172.563 4.11012 173.247 5.0807C173.249 5.08451 173.253 5.08838 173.256 5.09218C173.263 5.10285 173.271 5.11322 173.278 5.12392H173.277C173.928 6.04332 174.45 7.03508 174.849 8.08457L174.857 8.10482C174.864 8.1236 174.872 8.14204 174.879 8.16086H174.878C174.944 8.33202 175.007 8.50415 175.067 8.67737L175.14 8.62808L175.119 8.82861C175.383 9.61955 175.581 10.431 175.718 11.2586C175.907 12.3257 176 13.4058 176 14.4947C176 15.5794 175.926 16.6618 175.777 17.7403L175.239 21.6549L173.757 21.7501L173.122 27.7909L171.484 29.0556C170.812 29.5744 170.088 30.0088 169.324 30.362L169.325 30.3627L169.289 30.3796L169.288 30.3789C168.592 30.7024 167.872 30.9623 167.132 31.1594C166.432 31.3456 165.723 31.4827 165.005 31.5692C164.33 31.6505 163.654 31.6928 162.98 31.6928C161.565 31.6928 160.154 31.4985 158.793 31.0487C157.542 30.6352 156.365 30.0466 155.288 29.2723L155.255 29.2487L155.222 29.2237C154.334 28.5622 153.539 27.7991 152.843 26.9429C152.47 27.2329 152.082 27.5046 151.679 27.7565C151.67 27.762 151.662 27.768 151.653 27.7734L151.653 27.7727C150.586 28.4422 149.443 28.9545 148.24 29.3182L148.214 29.3263L148.188 29.3337C146.902 29.707 145.581 29.8806 144.245 29.8806C142.942 29.8806 141.653 29.7131 140.397 29.3594L140.39 29.3574L140.382 29.3547C139.482 29.0982 138.614 28.7601 137.782 28.3405L137.598 31.2897L121.461 32L121.467 30.7982L106.616 31.2499L106.617 31.131C106.583 31.1403 106.55 31.1504 106.516 31.1594C105.817 31.3456 105.107 31.4827 104.389 31.5692C103.714 31.6505 103.039 31.6928 102.364 31.6928C100.949 31.6928 99.5387 31.4985 98.1776 31.0487C96.9265 30.6352 95.7492 30.0466 94.6723 29.2723L94.6393 29.2487L94.6064 29.2237C93.7187 28.5622 92.9239 27.7991 92.2272 26.9429C91.8542 27.2329 91.4664 27.5046 91.0634 27.7565C91.0548 27.762 91.0465 27.768 91.0379 27.7734L91.0372 27.7727C89.9707 28.4422 88.827 28.9545 87.6241 29.3182L87.5985 29.3263L87.573 29.3337C86.2869 29.707 84.9653 29.8806 83.6291 29.8806C82.326 29.8806 81.0377 29.7131 79.7814 29.3594L79.774 29.3574L79.7666 29.3547C78.8669 29.0982 77.9984 28.7601 77.1661 28.3405L76.9825 31.2897L60.8451 32L60.8512 30.7982L46 31.2499L46.4352 1.07353L62.3129 0.453044L62.3351 0.525963L62.5382 0H78.9359L78.8363 1.58396Z" fill="white"/>
<path d="M102.927 11.2566C103.252 11.2566 103.524 11.3358 103.741 11.4943C103.93 11.6242 104.086 11.7883 104.208 11.9865C104.226 12.0148 104.242 12.0438 104.259 12.0736C104.293 12.1329 104.325 12.1941 104.355 12.2572C104.414 12.3835 104.463 12.5172 104.503 12.6583C104.522 12.7289 104.54 12.8013 104.554 12.8757C104.569 12.9476 104.582 13.0191 104.594 13.0904C104.605 13.1616 104.614 13.2325 104.621 13.3031C104.628 13.3736 104.634 13.4438 104.638 13.5137C104.642 13.5836 104.643 13.6531 104.643 13.7223V14.0491L100.263 14.465C100.332 14.1482 100.436 13.8016 100.574 13.4253C100.712 13.049 100.889 12.7024 101.106 12.3855C101.247 12.1735 101.405 11.9871 101.579 11.8251C101.673 11.7374 101.772 11.6564 101.876 11.5834C101.914 11.5561 101.953 11.5309 101.993 11.5071C102.27 11.3403 102.581 11.2566 102.927 11.2566Z" fill="black"/>
<path d="M163.542 11.2566C163.868 11.2566 164.139 11.3358 164.356 11.4943C164.546 11.6242 164.702 11.7883 164.824 11.9865C164.841 12.0148 164.858 12.0438 164.874 12.0736C164.909 12.1329 164.941 12.1941 164.97 12.2572C165.029 12.3835 165.079 12.5172 165.118 12.6583C165.138 12.7289 165.155 12.8013 165.17 12.8757C165.185 12.9476 165.198 13.0191 165.209 13.0904C165.231 13.2327 165.246 13.3738 165.253 13.5137C165.257 13.5836 165.259 13.6531 165.259 13.7223V14.0491L160.878 14.465C160.896 14.3858 160.915 14.3049 160.937 14.222C160.959 14.139 160.982 14.0541 161.008 13.9674C161.06 13.7942 161.12 13.6134 161.189 13.4253C161.327 13.049 161.505 12.7024 161.722 12.3855C161.863 12.1735 162.021 11.9871 162.195 11.8251C162.289 11.7374 162.388 11.6564 162.491 11.5834C162.53 11.5561 162.569 11.5309 162.609 11.5071C162.886 11.3403 163.197 11.2566 163.542 11.2566Z" fill="black"/>
<path fill-rule="evenodd" clip-rule="evenodd" d="M83.6291 12.1478C84.0829 12.1478 84.4825 12.2469 84.8278 12.4449C85.0055 12.539 85.1681 12.6494 85.3162 12.7757C85.39 12.8388 85.4602 12.9059 85.5267 12.9769C85.56 13.0125 85.5928 13.0487 85.6242 13.0863C85.6557 13.124 85.6861 13.1628 85.7157 13.2025C85.7453 13.2409 85.7741 13.28 85.8018 13.3199C85.9683 13.5595 86.1015 13.8268 86.2014 14.122C86.218 14.1712 86.2337 14.2212 86.2485 14.2719C86.2645 14.3214 86.2795 14.3712 86.2935 14.4212C86.3777 14.7211 86.4262 15.0294 86.4382 15.3461C86.4402 15.3988 86.4409 15.4517 86.4409 15.5048C86.4409 15.5593 86.4397 15.6135 86.4375 15.6675C86.4246 15.9914 86.3727 16.3069 86.2821 16.6141C86.267 16.6654 86.251 16.7166 86.2337 16.7674C86.2164 16.818 86.1983 16.868 86.1792 16.9173C86.0645 17.2135 85.9166 17.4848 85.7352 17.7309C85.705 17.7719 85.6738 17.8121 85.6417 17.8517C85.6097 17.89 85.5767 17.9273 85.5429 17.9638C85.5089 18.0004 85.4737 18.0358 85.4379 18.0705C85.4022 18.1051 85.3658 18.139 85.3283 18.1718L85.2126 18.2676C85.1336 18.3295 85.0507 18.3873 84.9644 18.4418C84.8781 18.4963 84.7883 18.5474 84.6946 18.5944C84.649 18.6167 84.6026 18.6377 84.5554 18.6572C84.4612 18.6961 84.3638 18.7293 84.2634 18.7571C84.1629 18.785 84.0593 18.8073 83.9527 18.824C83.7926 18.8491 83.6255 18.8618 83.4515 18.8618C83.3356 18.8618 83.223 18.8552 83.1138 18.8422C83.0048 18.8292 82.8993 18.8094 82.797 18.7835C82.5922 18.7315 82.4009 18.6539 82.2232 18.5499C81.8779 18.3419 81.5869 18.0696 81.3501 17.7329C81.1133 17.3962 80.9357 17.0199 80.8174 16.604C80.699 16.1881 80.6398 15.7722 80.6398 15.3563C80.6398 14.9206 80.7088 14.5096 80.8469 14.1234C80.9851 13.7273 81.1824 13.3857 81.4389 13.0985C81.7053 12.8014 82.021 12.5687 82.386 12.4003C82.751 12.232 83.1654 12.1478 83.6291 12.1478Z" fill="black"/>
<path fill-rule="evenodd" clip-rule="evenodd" d="M144.245 12.1478C144.698 12.1478 145.098 12.2469 145.443 12.4449C145.621 12.539 145.784 12.6494 145.932 12.7757C146.006 12.8388 146.076 12.9059 146.142 12.9769C146.176 13.0125 146.208 13.0487 146.24 13.0863C146.271 13.124 146.302 13.1628 146.331 13.2025C146.361 13.2409 146.39 13.28 146.417 13.3199C146.584 13.5595 146.717 13.8268 146.817 14.122C146.834 14.1712 146.849 14.2212 146.864 14.2719C146.88 14.3214 146.895 14.3712 146.909 14.4212C146.993 14.7211 147.042 15.0294 147.054 15.3461C147.056 15.3988 147.056 15.4517 147.056 15.5048C147.056 15.5593 147.055 15.6135 147.053 15.6675C147.04 15.9914 146.988 16.3069 146.898 16.6141C146.883 16.6654 146.867 16.7166 146.849 16.7674C146.832 16.818 146.814 16.868 146.795 16.9173C146.68 17.2135 146.532 17.4848 146.351 17.7309C146.321 17.7719 146.289 17.8121 146.257 17.8517C146.225 17.89 146.192 17.9273 146.158 17.9638C146.124 18.0004 146.089 18.0358 146.053 18.0705C146.018 18.1051 145.981 18.139 145.944 18.1718L145.828 18.2676C145.749 18.3295 145.666 18.3873 145.58 18.4418C145.494 18.4963 145.404 18.5474 145.31 18.5944C145.265 18.6167 145.218 18.6377 145.171 18.6572C145.077 18.6961 144.979 18.7293 144.879 18.7571C144.778 18.785 144.675 18.8073 144.568 18.824C144.408 18.8491 144.241 18.8618 144.067 18.8618C143.951 18.8618 143.839 18.8552 143.729 18.8422C143.62 18.8292 143.515 18.8094 143.413 18.7835C143.208 18.7315 143.016 18.6539 142.839 18.5499C142.493 18.3419 142.202 18.0696 141.966 17.7329C141.729 17.3962 141.551 17.0199 141.433 16.604C141.315 16.1881 141.255 15.7722 141.255 15.3563C141.255 14.9206 141.324 14.5096 141.462 14.1234C141.601 13.7273 141.798 13.3857 142.054 13.0985C142.321 12.8014 142.637 12.5687 143.002 12.4003C143.367 12.232 143.781 12.1478 144.245 12.1478Z" fill="black"/>
<path fill-rule="evenodd" clip-rule="evenodd" d="M77.3175 3.81412C78.1337 3.33991 78.9979 2.96158 79.9052 2.6805C81.0531 2.32491 82.2406 2.15521 83.4515 2.15521C85.2373 2.15522 86.9561 2.43433 88.5672 3.04442L88.5678 3.04375C90.1622 3.64387 91.5857 4.53074 92.7828 5.72352C92.9632 5.90038 93.1365 6.08273 93.3034 6.26974C93.9515 5.42359 94.6948 4.66705 95.5306 4.0079C96.5313 3.21875 97.6462 2.61476 98.8523 2.1883L98.8577 2.18627L98.8637 2.18425C100.152 1.73398 101.507 1.53135 102.897 1.53135C104.079 1.53135 105.243 1.69669 106.357 2.07217L106.357 2.07149C106.365 2.07399 106.372 2.07708 106.38 2.07959C106.39 2.08299 106.4 2.08562 106.41 2.08905L106.41 2.0904C107.107 2.32151 107.773 2.62362 108.401 2.99851L108.41 2.40435L121.924 1.87637L122.704 4.41571L122.802 4.73777L124.098 1.38281H138.085L137.933 3.81412C138.749 3.33991 139.613 2.96158 140.521 2.6805C141.669 2.32491 142.856 2.15521 144.067 2.15521C145.853 2.15522 147.572 2.43433 149.183 3.04442L149.183 3.04375C150.778 3.64387 152.201 4.53074 153.398 5.72352C153.579 5.90038 153.752 6.08273 153.919 6.26974C154.567 5.42359 155.31 4.66705 156.146 4.0079C157.147 3.21875 158.262 2.61476 159.468 2.1883L159.473 2.18627L159.479 2.18425C160.767 1.73398 162.123 1.53135 163.513 1.53135C164.694 1.53135 165.859 1.69669 166.972 2.07217L166.973 2.07149C166.98 2.07399 166.988 2.07708 166.996 2.07959C167.006 2.08299 167.016 2.08562 167.026 2.08905L167.025 2.0904C168.06 2.43324 169.028 2.92838 169.899 3.59334L169.9 3.59267C169.906 3.59759 169.912 3.60326 169.919 3.6082C169.93 3.61676 169.942 3.62456 169.953 3.63318L169.953 3.63453C170.794 4.26918 171.521 5.02335 172.127 5.88624C172.735 6.7371 173.221 7.66123 173.589 8.64636C173.95 9.57697 174.209 10.5469 174.371 11.5489H174.369C174.538 12.5189 174.622 13.5016 174.622 14.4947C174.622 15.5158 174.552 16.5354 174.413 17.5519L174.028 20.3479L172.51 20.4451L171.814 27.0557L170.644 27.9591C170.054 28.4148 169.417 28.7972 168.742 29.1089L168.743 29.1096C168.737 29.112 168.732 29.114 168.727 29.1164C168.724 29.118 168.72 29.1201 168.716 29.1218L168.716 29.1211C168.092 29.4115 167.445 29.6458 166.778 29.8233C166.141 29.9931 165.494 30.1179 164.84 30.1967C164.218 30.2717 163.597 30.3101 162.98 30.3101C161.69 30.3101 160.428 30.1332 159.224 29.7355C158.099 29.3638 157.048 28.8371 156.09 28.1482L156.067 28.1313L156.043 28.1137C155.128 27.4318 154.323 26.6302 153.634 25.7175C153.436 25.4548 153.25 25.1845 153.072 24.9087C152.427 25.5434 151.717 26.104 150.946 26.5858C149.981 27.1942 148.943 27.6616 147.843 27.9942L147.824 28.0003L147.806 28.0057C146.653 28.3402 145.461 28.4979 144.245 28.4979C143.06 28.4979 141.897 28.3457 140.769 28.028L140.764 28.0266L140.758 28.0246C139.694 27.7211 138.681 27.2947 137.728 26.7425L137.712 26.733L137.696 26.7242C137.299 26.4885 136.918 26.2322 136.55 25.9579L136.3 29.9624L122.846 30.5552L122.858 28.1711H121.785L121.781 29.4053L108.014 29.824L108.023 29.1549C107.423 29.4291 106.802 29.653 106.163 29.8233C105.525 29.9931 104.879 30.1179 104.225 30.1967C103.602 30.2717 102.981 30.3101 102.364 30.3101C101.074 30.3101 99.8121 30.1332 98.6088 29.7355C97.4839 29.3638 96.4329 28.8371 95.4748 28.1482L95.4513 28.1313L95.4277 28.1137C94.5126 27.4318 93.7078 26.6302 93.0189 25.7175C92.8206 25.4548 92.6341 25.1845 92.4565 24.9087C91.811 25.5434 91.1018 26.104 90.3302 26.5858C89.3659 27.1942 88.3273 27.6616 87.2272 27.9942L87.2084 28.0003L87.1902 28.0057C86.0377 28.3402 84.8456 28.4979 83.6291 28.4979C82.4446 28.4979 81.2819 28.3457 80.1534 28.028L80.148 28.0266L80.1427 28.0246C79.078 27.7211 78.0651 27.2947 77.1123 26.7425L77.0961 26.733L77.0807 26.7242C76.6837 26.4885 76.3021 26.2322 75.9344 25.9579L75.6849 29.9624L62.2302 30.5552L62.2423 28.1711H61.1694L61.1653 29.4053L47.3985 29.824L47.794 2.40435L61.3086 1.87637L62.0882 4.41571L62.1864 4.73777L63.482 1.38281H77.4695L77.3175 3.81412ZM65.841 4.83972L61.8158 15.2671L58.7969 5.43387L51.1903 5.73095L50.8943 26.259L57.7314 26.0511L57.7609 16.4258L60.0991 24.7142H62.7037L65.7523 15.4454L65.6931 26.9423L72.4413 26.6452L73.8028 4.83972H65.841ZM126.457 4.83972L122.431 15.2671L119.412 5.43387L111.806 5.73095L111.51 26.259L118.347 26.0511L118.376 16.4258L120.715 24.7142H123.319L126.368 15.4454L126.309 26.9423L133.057 26.6452L134.418 4.83972H126.457ZM102.897 4.98826C102.501 4.98826 102.118 5.00989 101.747 5.05307C101.5 5.08185 101.258 5.11989 101.022 5.16785C100.786 5.2158 100.555 5.27358 100.33 5.3407C100.218 5.37429 100.106 5.41033 99.9965 5.44873C99.8879 5.48712 99.7808 5.52748 99.675 5.56958C99.4635 5.65372 99.2578 5.7454 99.0574 5.84438C98.5564 6.09195 98.09 6.38574 97.6583 6.72616C97.572 6.79422 97.487 6.8638 97.4033 6.93479C97.1522 7.14787 96.9125 7.3738 96.6849 7.61334C96.5332 7.77305 96.3869 7.93881 96.2457 8.11027C96.1045 8.28169 95.9688 8.45914 95.838 8.64231C95.7797 8.72459 95.722 8.80749 95.6658 8.89145C95.652 8.91207 95.6385 8.93286 95.6248 8.95357C95.5823 9.01801 95.5409 9.08328 95.4997 9.1487C95.485 9.17195 95.4698 9.19486 95.4553 9.21824C95.4054 9.2987 95.3567 9.38007 95.3087 9.46198C95.3063 9.46607 95.3037 9.47004 95.3013 9.47413C95.1747 9.69052 95.0547 9.91197 94.9414 10.1385C94.9372 10.1468 94.9334 10.1552 94.9293 10.1635C94.9224 10.1773 94.9159 10.1914 94.9091 10.2053C94.8571 10.3109 94.8069 10.4177 94.7577 10.5254C94.7457 10.5518 94.7326 10.5778 94.7207 10.6044C94.6619 10.736 94.6052 10.8693 94.5506 11.0041C94.5087 11.1104 94.4681 11.2173 94.4288 11.3248C94.1929 11.9701 94.004 12.6349 93.8624 13.3193C93.8388 13.4333 93.8168 13.5478 93.7958 13.6629C93.7748 13.7782 93.755 13.8934 93.7366 14.0086C93.6266 14.6993 93.564 15.39 93.5483 16.0807C93.5457 16.1957 93.5442 16.3107 93.5442 16.4258C93.5442 16.7022 93.5533 16.9777 93.5698 17.2522C93.5715 17.2798 93.5727 17.3076 93.5745 17.3352C93.5787 17.3983 93.5843 17.4613 93.5893 17.5243C93.5914 17.5504 93.5931 17.5765 93.5954 17.6026C93.5956 17.6048 93.5958 17.6071 93.596 17.6093C93.6376 18.0892 93.7036 18.5662 93.7958 19.04C93.9635 19.9016 94.2102 20.7185 94.5358 21.4909C94.5765 21.5875 94.6182 21.6832 94.6616 21.7779C94.7482 21.9673 94.8402 22.1529 94.9373 22.3349C95.0345 22.5169 95.1371 22.6951 95.2448 22.8696C95.3523 23.0441 95.465 23.215 95.5831 23.3821C95.6421 23.4656 95.7024 23.5482 95.7641 23.6299C95.8257 23.7115 95.8883 23.7919 95.9524 23.8709C96.0806 24.029 96.2139 24.1818 96.352 24.3294C96.6973 24.6985 97.0736 25.0347 97.4807 25.3381C97.5634 25.3976 97.6473 25.4554 97.7323 25.5116C98.2418 25.8485 98.793 26.1268 99.3857 26.3468C99.4846 26.3835 99.5845 26.4187 99.6857 26.4521C99.7869 26.4856 99.8894 26.5167 99.9931 26.546C100.719 26.7507 101.51 26.8532 102.364 26.8532C102.483 26.8532 102.602 26.8515 102.721 26.8478C103.08 26.8366 103.445 26.8086 103.815 26.7641C103.938 26.7492 104.061 26.7319 104.184 26.7127C104.429 26.6744 104.673 26.6273 104.916 26.5716C105.038 26.5438 105.159 26.514 105.28 26.4818C105.4 26.4497 105.52 26.415 105.638 26.3779C105.757 26.3407 105.874 26.3011 105.99 26.259C106.106 26.2169 106.221 26.1724 106.334 26.1253C106.448 26.0783 106.56 26.0287 106.671 25.9768C106.841 25.8989 107.006 25.8147 107.166 25.7243C107.22 25.6941 107.273 25.6633 107.325 25.6318C107.483 25.537 107.635 25.4359 107.783 25.3286C107.832 25.2929 107.88 25.2564 107.929 25.2193L108.639 18.4756C108.493 18.5747 108.333 18.6785 108.161 18.7889C107.971 18.9101 107.766 19.0389 107.544 19.1737C107.438 19.2381 107.33 19.3016 107.222 19.3641C107.113 19.4265 107.004 19.4879 106.893 19.5484C106.671 19.6698 106.444 19.7877 106.212 19.9016C105.748 20.1194 105.28 20.3026 104.806 20.4512C104.574 20.5254 104.351 20.5808 104.137 20.6179C104.029 20.6365 103.924 20.6505 103.821 20.6598C103.718 20.6691 103.617 20.674 103.519 20.674C103.234 20.674 102.963 20.6441 102.707 20.5842C102.622 20.5642 102.539 20.5405 102.457 20.5139C102.129 20.4075 101.827 20.2482 101.55 20.0352C101.008 19.6094 100.608 19.04 100.352 18.327L105.354 17.6141C106.281 17.4763 107.212 17.3605 108.146 17.2657C108.535 17.2261 108.925 17.1897 109.316 17.1576C109.672 17.1284 110.028 17.1024 110.385 17.0793C110.46 16.5329 110.512 15.9864 110.539 15.44C110.555 15.1249 110.563 14.8098 110.563 14.4947C110.563 14.3932 110.562 14.292 110.559 14.1909C110.546 13.5848 110.495 12.9871 110.404 12.3976C110.389 12.2993 110.373 12.2012 110.356 12.1033C110.34 12.0042 110.322 11.9059 110.304 11.8082C110.194 11.2226 110.042 10.6619 109.849 10.1264C109.817 10.037 109.783 9.94831 109.749 9.86033C109.649 9.59294 109.538 9.33388 109.416 9.0832C109.334 8.9161 109.248 8.7527 109.157 8.59302C109.111 8.51312 109.064 8.43408 109.016 8.35604C108.92 8.20016 108.819 8.04808 108.713 7.89962C108.711 7.89752 108.71 7.89564 108.708 7.89354C108.486 7.57513 108.24 7.28173 107.972 7.01176C107.95 6.98952 107.927 6.96751 107.905 6.94559C107.876 6.91714 107.847 6.88842 107.818 6.86052C107.78 6.8248 107.741 6.79001 107.703 6.75519C107.662 6.71871 107.621 6.68265 107.579 6.64717C107.548 6.62 107.516 6.5934 107.483 6.56682C107.461 6.54879 107.44 6.53057 107.417 6.51281C107.357 6.46422 107.296 6.4162 107.233 6.36967C106.671 5.93396 106.024 5.59727 105.294 5.3596C104.574 5.11204 103.775 4.98826 102.897 4.98826ZM163.513 4.98826C163.117 4.98826 162.733 5.00989 162.362 5.05307C162.115 5.08185 161.873 5.11989 161.637 5.16785C161.401 5.2158 161.171 5.27358 160.946 5.3407C160.833 5.37429 160.722 5.41033 160.612 5.44873C160.503 5.48712 160.396 5.52748 160.29 5.56958C160.079 5.65372 159.873 5.7454 159.673 5.84438C159.172 6.09195 158.705 6.38574 158.274 6.72616C158.188 6.79422 158.103 6.8638 158.019 6.93479C157.768 7.14787 157.528 7.3738 157.3 7.61334C157.149 7.77305 157.002 7.93881 156.861 8.11027C156.72 8.28169 156.584 8.45914 156.454 8.64231C156.395 8.72459 156.338 8.80749 156.281 8.89145C156.268 8.91207 156.254 8.93286 156.24 8.95357C156.198 9.01801 156.156 9.08328 156.115 9.1487C156.101 9.17195 156.085 9.19486 156.071 9.21824C156.021 9.2987 155.972 9.38007 155.924 9.46198C155.922 9.46607 155.919 9.47004 155.917 9.47413C155.79 9.69052 155.67 9.91197 155.557 10.1385C155.553 10.1468 155.549 10.1552 155.545 10.1635C155.538 10.1773 155.531 10.1914 155.525 10.2053C155.473 10.3109 155.422 10.4177 155.373 10.5254C155.361 10.5518 155.348 10.5778 155.336 10.6044C155.277 10.736 155.221 10.8693 155.166 11.0041C155.124 11.1104 155.084 11.2173 155.044 11.3248C154.808 11.9701 154.62 12.6349 154.478 13.3193C154.454 13.4333 154.432 13.5478 154.411 13.6629C154.39 13.7782 154.371 13.8934 154.352 14.0086C154.242 14.6993 154.18 15.39 154.164 16.0807C154.161 16.1957 154.16 16.3107 154.16 16.4258C154.16 16.7022 154.169 16.9777 154.185 17.2522C154.187 17.2798 154.188 17.3076 154.19 17.3352C154.194 17.3983 154.2 17.4613 154.205 17.5243C154.207 17.5504 154.209 17.5765 154.211 17.6026C154.211 17.6048 154.211 17.6071 154.212 17.6093C154.253 18.0892 154.319 18.5662 154.411 19.04C154.579 19.9016 154.826 20.7185 155.151 21.4909C155.192 21.5875 155.234 21.6832 155.277 21.7779C155.364 21.9673 155.456 22.1529 155.553 22.3349C155.65 22.5169 155.753 22.6951 155.86 22.8696C155.968 23.0441 156.081 23.215 156.199 23.3821C156.258 23.4656 156.318 23.5482 156.38 23.6299C156.441 23.7115 156.504 23.7919 156.568 23.8709C156.696 24.029 156.829 24.1818 156.968 24.3294C157.313 24.6985 157.689 25.0347 158.096 25.3381C158.179 25.3976 158.263 25.4554 158.348 25.5116C158.857 25.8485 159.409 26.1268 160.001 26.3468C160.1 26.3835 160.2 26.4187 160.301 26.4521C160.402 26.4856 160.505 26.5167 160.609 26.546C161.335 26.7507 162.125 26.8532 162.98 26.8532C163.098 26.8532 163.217 26.8515 163.337 26.8478C163.696 26.8366 164.06 26.8086 164.43 26.7641C164.554 26.7492 164.677 26.7319 164.799 26.7127C165.045 26.6744 165.289 26.6273 165.532 26.5716C165.653 26.5438 165.774 26.514 165.895 26.4818C166.016 26.4497 166.135 26.415 166.254 26.3779C166.372 26.3407 166.489 26.3011 166.606 26.259C166.722 26.2169 166.836 26.1724 166.95 26.1253C167.063 26.0783 167.175 26.0287 167.286 25.9768C167.456 25.8989 167.622 25.8147 167.782 25.7243C167.835 25.6941 167.888 25.6633 167.941 25.6318C168.098 25.537 168.251 25.4359 168.398 25.3286C168.447 25.2929 168.496 25.2564 168.544 25.2193L169.254 18.4756C169.102 18.5795 168.934 18.6894 168.751 18.8057C168.569 18.9221 168.372 19.0449 168.159 19.1737C167.947 19.3024 167.73 19.4272 167.508 19.5484C167.286 19.6698 167.059 19.7877 166.827 19.9016C166.364 20.1194 165.895 20.3026 165.422 20.4512C165.19 20.5254 164.967 20.5808 164.752 20.6179C164.645 20.6365 164.54 20.6505 164.437 20.6598C164.334 20.6691 164.233 20.674 164.134 20.674C163.849 20.674 163.579 20.6441 163.323 20.5842C163.238 20.5642 163.155 20.5405 163.073 20.5139C162.745 20.4075 162.442 20.2482 162.166 20.0352C161.623 19.6094 161.224 19.04 160.967 18.327L165.969 17.6141C167.636 17.3665 169.314 17.1882 171.001 17.0793C171.076 16.5329 171.127 15.9864 171.155 15.44C171.171 15.1249 171.178 14.8098 171.178 14.4947C171.178 14.3932 171.177 14.292 171.175 14.1909C171.162 13.5848 171.11 12.9871 171.02 12.3976C171.004 12.2993 170.988 12.2012 170.971 12.1033C170.955 12.0042 170.938 11.9059 170.919 11.8082C170.809 11.2226 170.658 10.6619 170.465 10.1264C170.432 10.037 170.399 9.94831 170.364 9.86033C170.264 9.59294 170.154 9.33388 170.031 9.0832C169.95 8.9161 169.864 8.7527 169.772 8.59302C169.727 8.51312 169.68 8.43408 169.632 8.35604C169.536 8.20016 169.434 8.04808 169.328 7.89962C168.914 7.30547 168.421 6.79548 167.849 6.36967C167.286 5.93396 166.64 5.59727 165.91 5.3596C165.19 5.11204 164.391 4.98826 163.513 4.98826ZM83.4515 5.61212C82.6747 5.61212 81.9318 5.70688 81.223 5.89637C81.1216 5.92347 81.0209 5.95249 80.9209 5.98347C80.821 6.01442 80.7218 6.04664 80.6236 6.08069C80.4272 6.14879 80.2341 6.22302 80.0445 6.3035C79.7601 6.42415 79.4834 6.55877 79.2144 6.70726C79.1247 6.75674 79.036 6.80795 78.948 6.86052C78.8599 6.91317 78.7727 6.96749 78.6863 7.02324C78.6013 7.07891 78.5171 7.13576 78.4341 7.19406C77.9354 7.54413 77.4728 7.94161 77.0464 8.38642C76.9754 8.46047 76.9055 8.53593 76.8365 8.6126C76.4912 8.99636 76.1764 9.40315 75.8927 9.83332C75.7793 10.0054 75.6708 10.1812 75.5672 10.3606C75.5154 10.4504 75.4651 10.5412 75.4158 10.6327C75.3678 10.7242 75.3212 10.8165 75.2759 10.9096C75.1852 11.096 75.0999 11.2854 75.0203 11.4781C74.9407 11.6705 74.8668 11.8661 74.7983 12.0648C74.7299 12.2633 74.6673 12.465 74.61 12.6697C74.5813 12.7723 74.5538 12.8756 74.5279 12.9796C74.502 13.0824 74.4779 13.1855 74.4552 13.2889C74.3193 13.909 74.2412 14.5403 74.2218 15.1827C74.2186 15.2898 74.2171 15.3971 74.2171 15.5048C74.2171 15.615 74.2191 15.7246 74.2225 15.8336C74.2293 16.0518 74.2425 16.2679 74.2629 16.4818C74.2832 16.6955 74.3104 16.9071 74.3443 17.1165C74.3782 17.3261 74.4192 17.5336 74.4667 17.739C74.4904 17.8414 74.5156 17.9434 74.5427 18.0448C74.5711 18.1464 74.6005 18.2473 74.6315 18.3473C74.8174 18.9471 75.0508 19.5189 75.3311 20.0629C75.3777 20.1535 75.4257 20.2433 75.475 20.3323C75.5276 20.4237 75.5819 20.5137 75.6371 20.6031C75.6402 20.608 75.6428 20.613 75.6459 20.6179C75.8566 20.9575 76.0868 21.2824 76.336 21.5929C76.3482 21.6081 76.3607 21.623 76.373 21.6381C76.4443 21.7258 76.5173 21.812 76.5916 21.8974C76.6155 21.9247 76.6395 21.952 76.6636 21.9791C76.7491 22.0751 76.8358 22.1703 76.9253 22.2633C77.283 22.6224 77.6657 22.9506 78.0735 23.2477C78.2366 23.3665 78.4036 23.4805 78.5747 23.5894C78.6602 23.6438 78.7468 23.6968 78.8343 23.7487C78.9219 23.7995 79.0103 23.8486 79.0994 23.8966C79.2775 23.9925 79.4586 24.0832 79.6429 24.168C79.8272 24.2528 80.0147 24.332 80.2052 24.4057C80.3958 24.4793 80.5896 24.547 80.7864 24.6096C80.8848 24.6408 80.9838 24.6709 81.0837 24.6994C81.1849 24.7279 81.2867 24.7548 81.3891 24.7797C81.5938 24.8295 81.801 24.8717 82.0107 24.9073C82.2146 24.9419 82.4209 24.9699 82.6295 24.991C82.957 25.0242 83.2902 25.041 83.6291 25.041C84.5466 25.041 85.4148 24.9222 86.2337 24.6845C87.0525 24.4369 87.8073 24.0953 88.4979 23.6596C88.7606 23.4962 89.0127 23.3207 89.2546 23.1336C89.3351 23.0714 89.4146 23.0081 89.4928 22.9432C89.7278 22.7482 89.9526 22.5415 90.1668 22.3227C90.2382 22.2498 90.3082 22.1755 90.3773 22.0999C90.8503 21.5835 91.2596 21.0246 91.607 20.4241C91.6727 20.3107 91.7369 20.1963 91.798 20.0798C92.1926 19.347 92.4935 18.5647 92.7007 17.7329C92.9079 16.8912 93.0115 16.0197 93.0115 15.1186C93.0115 13.6728 92.7796 12.3657 92.316 11.1972C92.2645 11.0636 92.2103 10.9325 92.1538 10.8036C91.8336 10.0709 91.4336 9.41222 90.9538 8.82731C90.9359 8.80547 90.9174 8.78413 90.8993 8.76249C90.8666 8.72351 90.8338 8.68468 90.8004 8.64636C90.7192 8.55299 90.6358 8.46161 90.5502 8.37224C90.4934 8.31297 90.436 8.25422 90.3773 8.1967C90.3255 8.14468 90.2731 8.09326 90.2199 8.04276C90.1135 7.94179 90.0043 7.84398 89.8923 7.74905C89.8365 7.70172 89.78 7.65513 89.7228 7.60929C89.0346 7.05772 88.2464 6.61481 87.3584 6.28054C86.1844 5.83493 84.8821 5.61212 83.4515 5.61212ZM144.067 5.61212C143.29 5.61212 142.547 5.70688 141.839 5.89637C141.737 5.92347 141.636 5.95249 141.536 5.98347C141.437 6.01442 141.337 6.04664 141.239 6.08069C141.043 6.14879 140.85 6.22302 140.66 6.3035C140.376 6.42415 140.099 6.55877 139.83 6.70726C139.74 6.75674 139.652 6.80795 139.564 6.86052C139.475 6.91317 139.388 6.96749 139.302 7.02324C139.217 7.07891 139.133 7.13576 139.05 7.19406C138.551 7.54413 138.088 7.94161 137.662 8.38642C137.591 8.46047 137.521 8.53593 137.452 8.6126C137.107 8.99636 136.792 9.40315 136.508 9.83332C136.395 10.0054 136.286 10.1812 136.183 10.3606C136.131 10.4504 136.081 10.5412 136.031 10.6327C135.983 10.7242 135.937 10.8165 135.891 10.9096C135.801 11.096 135.715 11.2854 135.636 11.4781C135.556 11.6705 135.482 11.8661 135.414 12.0648C135.345 12.2633 135.283 12.465 135.226 12.6697C135.197 12.7723 135.169 12.8756 135.143 12.9796C135.118 13.0824 135.093 13.1855 135.071 13.2889C134.935 13.909 134.857 14.5403 134.837 15.1827C134.834 15.2898 134.833 15.3971 134.833 15.5048C134.833 15.615 134.835 15.7246 134.838 15.8336C134.845 16.0518 134.858 16.2679 134.878 16.4818C134.899 16.6955 134.926 16.9071 134.96 17.1165C134.994 17.3261 135.035 17.5336 135.082 17.739C135.106 17.8414 135.131 17.9434 135.158 18.0448C135.187 18.1464 135.216 18.2473 135.247 18.3473C135.433 18.9471 135.666 19.5189 135.947 20.0629C135.993 20.1535 136.041 20.2433 136.091 20.3323C136.143 20.4237 136.197 20.5137 136.253 20.6031C136.256 20.608 136.258 20.613 136.261 20.6179C136.472 20.9575 136.702 21.2824 136.952 21.5929C136.964 21.6081 136.976 21.623 136.989 21.6381C137.06 21.7258 137.133 21.812 137.207 21.8974C137.231 21.9247 137.255 21.952 137.279 21.9791C137.365 22.0751 137.451 22.1703 137.541 22.2633C137.899 22.6224 138.281 22.9506 138.689 23.2477C138.852 23.3665 139.019 23.4805 139.19 23.5894C139.276 23.6438 139.362 23.6968 139.45 23.7487C139.537 23.7995 139.626 23.8486 139.715 23.8966C139.893 23.9925 140.074 24.0832 140.258 24.168C140.443 24.2528 140.63 24.332 140.821 24.4057C141.011 24.4793 141.205 24.547 141.402 24.6096C141.5 24.6408 141.599 24.6709 141.699 24.6994C141.8 24.7279 141.902 24.7548 142.005 24.7797C142.209 24.8295 142.417 24.8717 142.626 24.9073C142.83 24.9419 143.036 24.9699 143.245 24.991C143.573 25.0242 143.906 25.041 144.245 25.041C145.162 25.041 146.03 24.9222 146.849 24.6845C147.668 24.4369 148.423 24.0953 149.113 23.6596C149.376 23.4962 149.628 23.3207 149.87 23.1336C149.951 23.0714 150.03 23.0081 150.108 22.9432C150.343 22.7482 150.568 22.5415 150.782 22.3227C150.854 22.2498 150.924 22.1755 150.993 22.0999C151.466 21.5835 151.875 21.0246 152.223 20.4241C152.288 20.3107 152.352 20.1963 152.414 20.0798C152.808 19.347 153.109 18.5647 153.316 17.7329C153.523 16.8912 153.627 16.0197 153.627 15.1186C153.627 13.6728 153.395 12.3657 152.932 11.1972C152.88 11.0636 152.826 10.9325 152.769 10.8036C152.449 10.0709 152.049 9.41222 151.569 8.82731C151.551 8.80547 151.533 8.78413 151.515 8.76249C151.482 8.72351 151.449 8.68468 151.416 8.64636C151.335 8.55299 151.251 8.46161 151.166 8.37224C151.109 8.31297 151.052 8.25422 150.993 8.1967C150.941 8.14468 150.889 8.09326 150.835 8.04276C150.729 7.94179 150.62 7.84398 150.508 7.74905C150.452 7.70172 150.396 7.65513 150.338 7.60929C149.65 7.05772 148.862 6.61481 147.974 6.28054C146.8 5.83493 145.498 5.61212 144.067 5.61212Z" fill="black"/>
<path d="M102.927 11.2566C103.252 11.2567 103.524 11.3359 103.741 11.4943C103.958 11.6428 104.13 11.836 104.259 12.0736C104.397 12.3113 104.495 12.5786 104.554 12.8757C104.614 13.1629 104.643 13.4451 104.643 13.7224V14.0492L100.263 14.4651C100.332 14.1482 100.436 13.8016 100.574 13.4253C100.712 13.049 100.889 12.7024 101.106 12.3855C101.323 12.0588 101.58 11.7914 101.876 11.5834C102.182 11.3656 102.532 11.2566 102.927 11.2566Z" fill="#FF6CBD"/>
<path d="M163.542 11.2566C163.868 11.2567 164.139 11.3359 164.356 11.4943C164.573 11.6428 164.746 11.836 164.874 12.0736C165.012 12.3113 165.111 12.5786 165.17 12.8757C165.229 13.1629 165.259 13.4451 165.259 13.7224V14.0492L160.878 14.4651C160.947 14.1482 161.051 13.8016 161.189 13.4253C161.327 13.049 161.505 12.7024 161.722 12.3855C161.939 12.0588 162.195 11.7914 162.491 11.5834C162.797 11.3656 163.148 11.2566 163.542 11.2566Z" fill="#FF6CBD"/>
<path fill-rule="evenodd" clip-rule="evenodd" d="M83.6291 12.1479C84.0829 12.1479 84.4825 12.2469 84.8278 12.445C85.183 12.6331 85.4789 12.8856 85.7157 13.2025C85.9525 13.5095 86.1301 13.866 86.2485 14.272C86.3767 14.6681 86.4409 15.0791 86.4409 15.5049C86.4409 15.9406 86.3718 16.3614 86.2337 16.7674C86.0956 17.1734 85.8982 17.5349 85.6417 17.8518C85.3852 18.1587 85.0695 18.4063 84.6946 18.5945C84.3296 18.7727 83.9152 18.8618 83.4515 18.8618C82.9878 18.8618 82.5784 18.7579 82.2232 18.5499C81.8779 18.342 81.5869 18.0696 81.3501 17.7329C81.1133 17.3963 80.9357 17.02 80.8173 16.604C80.699 16.1881 80.6398 15.7722 80.6398 15.3563C80.6398 14.9206 80.7088 14.5096 80.8469 14.1234C80.9851 13.7273 81.1824 13.3857 81.4389 13.0985C81.7053 12.8015 82.021 12.5687 82.386 12.4004C82.751 12.2321 83.1654 12.1479 83.6291 12.1479ZM83.6291 14.222C83.418 14.222 83.3049 14.2591 83.249 14.2848C83.1387 14.3357 83.053 14.3995 82.9773 14.4833L82.9322 14.5394C82.8864 14.6025 82.8398 14.6881 82.7977 14.8088L82.7943 14.8162L82.7916 14.8243C82.7388 14.972 82.7062 15.1447 82.7062 15.3563C82.7062 15.5719 82.7367 15.7961 82.8044 16.0342C82.8622 16.2371 82.9422 16.3996 83.0385 16.5365C83.1081 16.6356 83.1829 16.7044 83.2692 16.7593C83.2827 16.7663 83.331 16.7877 83.4515 16.7877C83.6311 16.7877 83.7284 16.7566 83.7784 16.7344C83.9031 16.6706 83.9862 16.6012 84.0495 16.5278C84.1392 16.4134 84.2177 16.275 84.2782 16.097C84.3417 15.9102 84.3744 15.7161 84.3744 15.5049C84.3744 15.2919 84.3426 15.0978 84.2829 14.9134L84.2735 14.8837L84.2654 14.8547C84.2132 14.6753 84.1467 14.5567 84.0818 14.4725L84.0724 14.4597L84.0623 14.4469C84.0122 14.3798 83.953 14.327 83.8632 14.2794L83.8329 14.2632L83.8027 14.2457C83.8017 14.2451 83.7944 14.2407 83.7737 14.2355C83.7516 14.2301 83.7058 14.222 83.6291 14.222Z" fill="#FF6CBD"/>
<path fill-rule="evenodd" clip-rule="evenodd" d="M144.245 12.1479C144.698 12.1479 145.098 12.2469 145.443 12.445C145.799 12.6331 146.094 12.8856 146.331 13.2025C146.568 13.5095 146.746 13.866 146.864 14.272C146.992 14.6681 147.056 15.0791 147.056 15.5049C147.056 15.9406 146.987 16.3614 146.849 16.7674C146.711 17.1734 146.514 17.5349 146.257 17.8518C146.001 18.1587 145.685 18.4063 145.31 18.5945C144.945 18.7727 144.531 18.8618 144.067 18.8618C143.603 18.8618 143.194 18.7579 142.839 18.5499C142.493 18.342 142.202 18.0696 141.966 17.7329C141.729 17.3963 141.551 17.02 141.433 16.604C141.315 16.1881 141.255 15.7722 141.255 15.3563C141.255 14.9206 141.324 14.5096 141.462 14.1234C141.601 13.7273 141.798 13.3857 142.054 13.0985C142.321 12.8015 142.637 12.5687 143.002 12.4004C143.367 12.2321 143.781 12.1479 144.245 12.1479ZM144.245 14.222C144.033 14.222 143.92 14.2591 143.865 14.2848C143.754 14.3357 143.669 14.3995 143.593 14.4833L143.548 14.5394C143.502 14.6025 143.455 14.6881 143.413 14.8088L143.41 14.8162L143.407 14.8243C143.354 14.972 143.322 15.1447 143.322 15.3563C143.322 15.5719 143.352 15.7961 143.42 16.0342C143.478 16.2371 143.558 16.3996 143.654 16.5365C143.724 16.6356 143.798 16.7044 143.885 16.7593C143.898 16.7663 143.947 16.7877 144.067 16.7877C144.247 16.7877 144.344 16.7566 144.394 16.7344C144.519 16.6706 144.602 16.6012 144.665 16.5278C144.755 16.4134 144.833 16.275 144.894 16.097C144.957 15.9102 144.99 15.7161 144.99 15.5049C144.99 15.2919 144.958 15.0978 144.898 14.9134L144.889 14.8837L144.881 14.8547C144.829 14.6753 144.762 14.5567 144.697 14.4725L144.688 14.4597L144.678 14.4469C144.628 14.3798 144.569 14.327 144.479 14.2794L144.448 14.2632L144.418 14.2457C144.417 14.2451 144.41 14.2407 144.389 14.2355C144.367 14.2301 144.321 14.222 144.245 14.222Z" fill="#FF6CBD"/>
<path fill-rule="evenodd" clip-rule="evenodd" d="M75.7535 6.74917C76.3054 6.20046 76.9071 5.71189 77.5576 5.28606L77.563 5.28201L77.569 5.27863C78.4204 4.72932 79.3365 4.30392 80.3115 4.00187C81.3199 3.68949 82.3698 3.53803 83.4515 3.53803C85.0953 3.53803 86.6478 3.79435 88.0842 4.33879L88.3512 4.44276C89.6709 4.97652 90.8363 5.73015 91.8202 6.71271C92.4214 7.30199 92.9389 7.95919 93.3754 8.67747C93.6132 8.24991 93.8728 7.83685 94.155 7.4392L94.1577 7.43447C94.7918 6.5458 95.5338 5.76356 96.3816 5.09498C97.2581 4.40372 98.2389 3.87144 99.3097 3.49279L99.3171 3.49009C100.441 3.0972 101.641 2.91416 102.897 2.91416C103.957 2.91417 104.975 3.0637 105.931 3.38814L105.932 3.38679C105.941 3.38953 105.949 3.39347 105.957 3.39624C105.959 3.39697 105.962 3.39686 105.964 3.39759L105.963 3.39827C106.876 3.69888 107.715 4.13036 108.463 4.70406C108.472 4.71028 108.48 4.71672 108.488 4.72296C108.491 4.72474 108.493 4.72591 108.496 4.72769L108.495 4.72836C108.947 5.06817 109.361 5.44849 109.737 5.86671L109.768 3.73518L120.919 3.29969L122.654 8.94889L125.041 2.76562H136.619L136.369 6.74917C136.921 6.20046 137.523 5.71189 138.173 5.28606L138.179 5.28201L138.185 5.27863C139.036 4.72932 139.952 4.30392 140.927 4.00187C141.935 3.68949 142.985 3.53803 144.067 3.53803C145.711 3.53803 147.263 3.79435 148.7 4.33879L148.967 4.44276C150.286 4.97652 151.452 5.73015 152.436 6.71271C153.037 7.30199 153.554 7.95919 153.991 8.67747C154.229 8.24991 154.488 7.83685 154.771 7.4392L154.773 7.43447C155.407 6.5458 156.149 5.76356 156.997 5.09498C157.874 4.40372 158.854 3.87144 159.925 3.49279L159.933 3.49009C161.057 3.0972 162.257 2.91416 163.513 2.91416C164.572 2.91417 165.59 3.0637 166.547 3.38814L166.548 3.38679C166.556 3.38953 166.564 3.39347 166.573 3.39624C166.575 3.39697 166.577 3.39686 166.579 3.39759L166.579 3.39827C167.491 3.69888 168.331 4.13036 169.079 4.70406C169.087 4.71028 169.095 4.71672 169.104 4.72296C169.106 4.72474 169.109 4.72591 169.111 4.72769L169.111 4.72836C169.85 5.28417 170.489 5.94667 171.022 6.71001C171.543 7.44386 171.963 8.2427 172.286 9.09946C172.616 9.93995 172.854 10.8223 173.005 11.7414C173.165 12.6458 173.245 13.5641 173.245 14.4948C173.245 15.452 173.179 16.4084 173.048 17.3629L172.817 19.0408L171.262 19.1407L170.506 26.3212L169.804 26.8634C169.292 27.259 168.737 27.5925 168.145 27.864L168.144 27.8633C167.592 28.1207 167.019 28.3285 166.425 28.4865C165.849 28.6399 165.266 28.7524 164.676 28.8234C164.105 28.8922 163.54 28.9274 162.98 28.9274C161.815 28.9274 160.7 28.7679 159.655 28.4223C158.656 28.0923 157.732 27.6275 156.893 27.024L156.865 27.0038C156.055 26.4005 155.343 25.6915 154.732 24.8824C154.176 24.1459 153.712 23.3493 153.335 22.4977C153.081 22.8459 152.808 23.1817 152.514 23.5023C151.836 24.2438 151.067 24.882 150.213 25.4151C149.358 25.9544 148.433 26.3717 147.445 26.6703L147.434 26.6736L147.423 26.677C146.404 26.9727 145.342 27.1152 144.245 27.1152C143.179 27.1152 142.142 26.9783 141.141 26.6966L141.135 26.6946C140.176 26.4214 139.269 26.0385 138.417 25.5447L138.398 25.5339C137.549 25.03 136.775 24.4279 136.08 23.7299L136.067 23.7177L136.055 23.7042C135.811 23.4507 135.58 23.1872 135.36 22.9149L135.003 28.6357L124.231 29.1097L124.243 26.7884H120.411L120.407 28.0638L109.413 28.398L109.437 26.6709L109.189 26.8634C108.676 27.259 108.122 27.5925 107.529 27.864L107.528 27.8633C106.976 28.1207 106.403 28.3285 105.81 28.4865C105.234 28.6399 104.65 28.7524 104.061 28.8234C103.49 28.8922 102.924 28.9274 102.364 28.9274C101.2 28.9274 100.085 28.7679 99.0393 28.4223C98.0408 28.0923 97.1165 27.6275 96.2773 27.024L96.249 27.0038C95.4395 26.4005 94.7274 25.6915 94.1167 24.8824C93.5608 24.1459 93.096 23.3493 92.7196 22.4977C92.465 22.8459 92.1925 23.1817 91.8989 23.5023C91.2207 24.2438 90.4519 24.882 89.597 25.4151C88.7422 25.9544 87.8172 26.3717 86.8297 26.6703L86.8189 26.6736L86.8075 26.677C85.7884 26.9727 84.726 27.1152 83.6291 27.1152C82.5632 27.1152 81.5261 26.9783 80.5254 26.6966L80.5194 26.6946C79.5608 26.4214 78.653 26.0385 77.8011 25.5447L77.7823 25.5339C76.9335 25.03 76.1597 24.4279 75.4642 23.7299L75.4515 23.7177L75.4394 23.7042C75.1954 23.4507 74.9641 23.1872 74.7445 22.9149L74.3873 28.6357L63.6152 29.1097L63.6273 26.7884H59.7958L59.7917 28.0638L48.797 28.398L49.1521 3.73518L60.3036 3.29969L62.0385 8.94889L64.4258 2.76562H76.0031L75.7535 6.74917ZM61.8158 15.2672L58.7969 5.43392L51.1903 5.731L50.8943 26.2591L57.7314 26.0511L57.7609 16.4258L60.0991 24.7143H62.7037L65.7523 15.4454L65.6931 26.9424L72.4413 26.6453L73.4886 9.85971C73.4889 9.85908 73.489 9.85831 73.4893 9.85768L73.8028 4.83977H65.841L61.8158 15.2672ZM122.431 15.2672L119.412 5.43392L111.806 5.731L111.51 26.2591L118.347 26.0511L118.376 16.4258L120.715 24.7143H123.319L126.368 15.4454L126.309 26.9424L133.057 26.6453L134.104 9.85971C134.104 9.85908 134.105 9.85831 134.105 9.85768L134.418 4.83977H126.457L122.431 15.2672ZM102.897 4.98831C101.841 4.98831 100.875 5.1418 99.9965 5.44878C99.1283 5.75576 98.3489 6.18157 97.6583 6.72621C96.9677 7.27085 96.3609 7.90958 95.838 8.64236C95.325 9.36525 94.8959 10.1525 94.5506 11.0041C94.528 11.0613 94.5064 11.1188 94.4846 11.1763C94.4125 11.3668 94.3447 11.559 94.2808 11.7529C94.2377 11.8838 94.1963 12.0154 94.157 12.1479C94.1058 12.3205 94.058 12.4945 94.0131 12.6698C93.9297 12.9963 93.857 13.3273 93.7958 13.663C93.6281 14.5839 93.5442 15.5049 93.5442 16.4258C93.5442 16.8201 93.5618 17.2123 93.5954 17.6026C93.6058 17.723 93.6175 17.8432 93.631 17.9632L93.6566 18.1718C93.6939 18.4623 93.7397 18.7518 93.7958 19.0401C93.812 19.1233 93.8293 19.2061 93.8469 19.2886C93.9094 19.5784 93.9811 19.863 94.0615 20.1426C94.1949 20.6061 94.3523 21.0558 94.5358 21.491C94.8613 22.2634 95.2708 22.9764 95.7641 23.6299C96.2573 24.2835 96.8296 24.8529 97.4807 25.3381C98.1417 25.8135 98.8767 26.1848 99.6857 26.4522C100.495 26.7195 101.388 26.8532 102.364 26.8532C102.838 26.8532 103.321 26.8235 103.815 26.7641C104.308 26.7047 104.796 26.6106 105.28 26.4819C105.763 26.3531 106.227 26.1848 106.671 25.9769C107.125 25.7689 107.544 25.5164 107.929 25.2193L108.639 18.4756C108.333 18.6836 107.968 18.9163 107.544 19.1738C107.12 19.4312 106.676 19.6739 106.212 19.9016C105.748 20.1195 105.28 20.3027 104.806 20.4512C104.342 20.5997 103.913 20.674 103.519 20.674C102.759 20.674 102.103 20.4611 101.55 20.0353C101.008 19.6095 100.608 19.0401 100.352 18.3271L105.354 17.6141C106.753 17.4063 108.16 17.2476 109.573 17.1374C109.58 17.1369 109.588 17.136 109.595 17.1354C109.858 17.115 110.121 17.0964 110.385 17.0794C110.504 16.2178 110.563 15.3563 110.563 14.4948C110.563 13.6828 110.494 12.8856 110.356 12.1033C110.227 11.3111 110.025 10.5635 109.749 9.86038C109.727 9.80269 109.704 9.7458 109.682 9.68889C109.425 9.04266 109.103 8.44558 108.713 7.89967C108.299 7.30552 107.805 6.79553 107.233 6.36972C106.671 5.93401 106.024 5.59732 105.294 5.35965C104.574 5.11209 103.775 4.98831 102.897 4.98831ZM163.513 4.98831C162.457 4.98831 161.49 5.1418 160.612 5.44878C159.744 5.75576 158.964 6.18157 158.274 6.72621C157.583 7.27085 156.976 7.90958 156.454 8.64236C155.941 9.36525 155.511 10.1525 155.166 11.0041C155.144 11.0613 155.122 11.1188 155.1 11.1763C155.028 11.3668 154.96 11.559 154.896 11.7529C154.853 11.8838 154.812 12.0154 154.773 12.1479C154.721 12.3205 154.674 12.4945 154.629 12.6698C154.545 12.9963 154.473 13.3273 154.411 13.663C154.244 14.5839 154.16 15.5049 154.16 16.4258C154.16 16.8201 154.177 17.2123 154.211 17.6026C154.221 17.723 154.233 17.8432 154.247 17.9632L154.272 18.1718C154.309 18.4623 154.355 18.7518 154.411 19.0401C154.428 19.1233 154.445 19.2061 154.462 19.2886C154.525 19.5784 154.597 19.863 154.677 20.1426C154.81 20.6061 154.968 21.0558 155.151 21.491C155.477 22.2634 155.886 22.9764 156.38 23.6299C156.873 24.2835 157.445 24.8529 158.096 25.3381C158.757 25.8135 159.492 26.1848 160.301 26.4522C161.11 26.7195 162.003 26.8532 162.98 26.8532C163.453 26.8532 163.937 26.8235 164.43 26.7641C164.923 26.7047 165.412 26.6106 165.895 26.4819C166.379 26.3531 166.842 26.1848 167.286 25.9769C167.74 25.7689 168.159 25.5164 168.544 25.2193L169.254 18.4756C168.949 18.6836 168.584 18.9163 168.159 19.1738C167.735 19.4312 167.291 19.6739 166.827 19.9016C166.364 20.1195 165.895 20.3027 165.422 20.4512C164.958 20.5997 164.529 20.674 164.134 20.674C163.374 20.674 162.718 20.4611 162.166 20.0353C161.623 19.6095 161.224 19.0401 160.967 18.3271L165.969 17.6141C167.636 17.3665 169.314 17.1883 171.001 17.0794C171.119 16.2178 171.178 15.3563 171.178 14.4948C171.178 13.6828 171.109 12.8856 170.971 12.1033C170.843 11.3111 170.641 10.5635 170.364 9.86038C170.098 9.1474 169.753 8.49382 169.328 7.89967C168.914 7.30552 168.421 6.79553 167.849 6.36972C167.286 5.93401 166.64 5.59732 165.91 5.35965C165.19 5.11209 164.391 4.98831 163.513 4.98831ZM83.4515 5.61217C82.5636 5.61217 81.7201 5.73596 80.9209 5.98352C80.1218 6.23108 79.3769 6.57768 78.6863 7.02329C78.0056 7.4689 77.389 7.9987 76.8365 8.61266C76.3331 9.17202 75.8958 9.781 75.5234 10.439C75.4872 10.5031 75.4508 10.5678 75.4158 10.6328C75.0311 11.3656 74.7351 12.1479 74.5279 12.9797C74.3207 13.8016 74.2171 14.6433 74.2171 15.5049C74.2171 16.3862 74.3256 17.2329 74.5427 18.0449C74.662 18.4719 74.8055 18.8849 74.9712 19.2845L74.9705 19.2852C75.1199 19.6453 75.288 19.9944 75.475 20.3324C75.8795 21.0355 76.3629 21.6791 76.9253 22.2634C77.4975 22.8377 78.1339 23.3329 78.8343 23.7488C79.5348 24.1548 80.2846 24.4717 81.0837 24.6994C81.8927 24.9272 82.7412 25.0411 83.6291 25.0411C84.5466 25.0411 85.4148 24.9222 86.2337 24.6846C87.0525 24.437 87.8073 24.0954 88.4979 23.6596C89.1983 23.2239 89.8248 22.704 90.3773 22.1C90.9397 21.486 91.4132 20.8126 91.798 20.0799C91.824 20.0315 91.8481 19.9821 91.8733 19.9333C92.2302 19.243 92.5073 18.5097 92.7007 17.7329C92.9079 16.8912 93.0115 16.0198 93.0115 15.1187C93.0115 13.6729 92.7796 12.3657 92.316 11.1972C92.311 11.1843 92.3055 11.1716 92.3005 11.1587C91.8475 9.99737 91.2066 9.00952 90.3773 8.19675C89.5486 7.36493 88.5423 6.72621 87.3584 6.2806C86.1844 5.83498 84.8821 5.61217 83.4515 5.61217ZM144.067 5.61217C143.179 5.61217 142.336 5.73596 141.536 5.98352C140.737 6.23108 139.992 6.57768 139.302 7.02329C138.621 7.4689 138.005 7.9987 137.452 8.61266C136.949 9.17202 136.511 9.781 136.139 10.439C136.103 10.5031 136.066 10.5678 136.031 10.6328C135.647 11.3656 135.351 12.1479 135.143 12.9797C134.936 13.8016 134.833 14.6433 134.833 15.5049C134.833 16.3862 134.941 17.2329 135.158 18.0449C135.278 18.4719 135.421 18.8849 135.587 19.2845L135.586 19.2852C135.735 19.6453 135.904 19.9944 136.091 20.3324C136.495 21.0355 136.978 21.6791 137.541 22.2634C138.113 22.8377 138.749 23.3329 139.45 23.7488C140.15 24.1548 140.9 24.4717 141.699 24.6994C142.508 24.9272 143.357 25.0411 144.245 25.0411C145.162 25.0411 146.03 24.9222 146.849 24.6846C147.668 24.437 148.423 24.0954 149.113 23.6596C149.814 23.2239 150.44 22.704 150.993 22.1C151.555 21.486 152.029 20.8126 152.414 20.0799C152.44 20.0315 152.464 19.9821 152.489 19.9333C152.846 19.243 153.123 18.5097 153.316 17.7329C153.523 16.8912 153.627 16.0198 153.627 15.1187C153.627 13.6729 153.395 12.3657 152.931 11.1972C152.927 11.1843 152.921 11.1716 152.916 11.1587C152.463 9.99737 151.822 9.00952 150.993 8.19675C150.164 7.36493 149.158 6.72621 147.974 6.2806C146.8 5.83498 145.498 5.61217 144.067 5.61217Z" fill="#FF6CBD"/>
</g>
<defs>
<clipPath id="clip0_1657_20963">
<rect width="176" height="32" fill="white"/>
</clipPath>
</defs>
</svg>
